<?xml version="1.0" standalone="no"?>
<!DOCTYPE svg PUBLIC "-//W3C//DTD SVG 1.1//EN" "http://www.w3.org/Graphics/SVG/1.1/DTD/svg11.dtd" >
<svg>
<metadata>
Created by FontForge 20090622 at Wed Oct 28 16:11:57 2015
 By deploy user
Copyright (c) 2013 by Ivan Filipov, Neogrey Ltd. All rights reserved.
</metadata>
<defs>
<font id="RonduitCapitals-Light" horiz-adv-x="833" >
  <font-face 
    font-family="Ronduit Capitals Light"
    font-weight="300"
    font-variant="small-caps"
    font-stretch="normal"
    units-per-em="1000"
    panose-1="2 0 0 0 0 0 0 0 0 0"
    ascent="773"
    descent="-227"
    x-height="733"
    cap-height="733"
    bbox="-58 -193 1639 972"
    underline-thickness="50"
    underline-position="-50"
    unicode-range="U+0020-U+20AC"
  />
<missing-glyph horiz-adv-x="640" 
 />
    <glyph glyph-name="L_A" unicode="LA" horiz-adv-x="1531" 
d="M989 640l-250 -640h-557q-42 0 -72 30t-30 71v632h36v-632q0 -27 19.5 -46t46.5 -19h532l242 617q15 39 46 63q33 24 75 24q43 0 75 -24q31 -24 47 -63l255 -653h-38l-87 222h-427v36h413l-150 382q-11 30 -34.5 47.5t-53.5 17.5q-29 0 -52.5 -17.5t-35.5 -47.5z" />
    <glyph glyph-name="L_S" unicode="LS" horiz-adv-x="1496" 
d="M652 0h-470q-42 0 -72 30t-30 71v632h36v-632q0 -27 19.5 -46t46.5 -19h470v-36zM1172 0h-538v36h538q47 0 76.5 27.5t29.5 70.5v87q0 3 -1 8.5t-6.5 17.5t-15.5 22t-30.5 20.5t-48.5 15.5v1l-380 86q-60 13 -100 33q-31 15 -47 36q-21 26 -21 59v72q-1 62 38 101
q38 41 91 41h526v-36h-526q-38 0 -65 -29q-29 -29 -28 -77v-72q0 -63 140 -93l379 -86q81 -16 114 -68q17 -28 17 -53v-86q0 -58 -41 -96q-38 -38 -101 -38z" />
    <glyph glyph-name="A_S" unicode="AS" horiz-adv-x="1719" 
d="M1459 0h-697l-87 222h-504l-86 -222h-39l256 653q15 39 46 63q33 24 75 24q43 0 75 -24q31 -24 47 -63l241 -617h673q47 0 76.5 27.5t29.5 70.5v87q0 3 -1 8.5t-6.5 17.5t-15.5 22t-30.5 20.5t-48.5 15.5l-380 87q-60 13 -100 33q-31 15 -47 36q-21 26 -21 59v72
q0 63 38 101q38 41 91 41h526v-36h-526q-38 0 -65 -29q-28 -28 -28 -73v-76q0 -63 140 -93l379 -86q83 -19 114 -68q17 -28 17 -53v-86q0 -58 -41 -97q-39 -37 -101 -37zM423 705q-29 0 -52.5 -17.5t-35.5 -47.5l-150 -382h476l-150 382q-11 30 -34.5 47.5t-53.5 17.5z" />
    <glyph glyph-name=".notdef" horiz-adv-x="640" 
 />
    <glyph glyph-name=".null" horiz-adv-x="0" 
 />
    <glyph glyph-name="nonmarkingreturn" horiz-adv-x="333" 
 />
    <glyph glyph-name="space" unicode=" " horiz-adv-x="512" 
 />
    <glyph glyph-name="exclam" unicode="!" horiz-adv-x="250" 
d="M116 200h-36v535h36v-535zM116 0h-36v105h36v-105z" />
    <glyph glyph-name="quotedbl" unicode="&#x22;" horiz-adv-x="168" 
d="M76 670h-36v105h36v-105zM138 670h-36v105h36v-105z" />
    <glyph glyph-name="numbersign" unicode="#" horiz-adv-x="892" 
d="M535 0h-42l56 228h-328l-56 -228h-42l56 228h-99v36h108l55 224h-163v36h172l51 209h42l-51 -209h328l51 209h42l-51 -209h115v-36h-124l-55 -224h179v-36h-188zM285 488l-55 -224h328l55 224h-328z" />
    <glyph glyph-name="dollar" unicode="$" horiz-adv-x="867" 
d="M624 0h-538v36h538q47 0 76.5 27.5t29.5 70.5v118q0 4 -1 9.5t-6.5 17t-15.5 21.5t-30 20.5t-48 15.5q-3 1 -57.5 8.5l-147 20.5t-174.5 26q-47 8 -81.5 23.5t-51 30.5t-25.5 33.5t-10.5 27t-1.5 14.5v71q-1 62 38 101q38 41 91 41h532v-36h-532q-38 0 -65 -29
q-29 -29 -28 -77v-72q0 -17 16 -37q35 -42 124 -55q350 -55 378 -55h1q81 -16 114 -68q17 -28 17 -53v-117q0 -58 -41 -96q-38 -38 -101 -38zM462 710h-36v133h36v-133zM462 -110h-36v133h36v-133z" />
    <glyph glyph-name="uni0025" unicode="%" horiz-adv-x="926" 
d="M236 0h-46l500 733h46zM298 392h-89q-52 0 -89 37t-37 89v89q0 52 37 89.5t89 37.5h89q52 0 89 -37t37 -90v-89q0 -52 -37 -89t-89 -37zM298 698h-89q-37 0 -63.5 -26.5t-26.5 -64.5v-89q0 -38 26.5 -64t63.5 -26h89q38 0 64.5 26.5t26.5 63.5v89q0 37 -26.5 64t-64.5 27
zM728 2h-89q-52 0 -89 37t-37 89v89q0 52 37 89.5t89 37.5h89q52 0 89 -37t37 -90v-89q0 -52 -37 -89t-89 -37zM728 308h-89q-37 0 -63.5 -26.5t-26.5 -64.5v-89q0 -38 26.5 -64t63.5 -26h89q38 0 64.5 26.5t26.5 63.5v89q0 37 -26.5 64t-64.5 27z" />
    <glyph glyph-name="ampersand" unicode="&#x26;" horiz-adv-x="979" 
d="M923 399v-36h-91v-205q0 -63 -40 -108q-44 -50 -110 -50h-452q-66 0 -110 49q-40 45 -40 107v88q0 60 40 106q15 16 30 26q-32 15 -51 45.5t-19 66.5v120q0 52 36.5 89t88.5 37h562v-36h-562q-37 0 -63 -26.5t-26 -63.5v-120q0 -37 26 -63t63 -26h18h700zM797 158v205
h-574q-45 0 -76 -37.5t-31 -81.5v-88q0 -47 31 -83.5t83 -36.5h452q51 0 83 37t32 85z" />
    <glyph glyph-name="quotesingle" unicode="'" horiz-adv-x="76" 
d="M57 670h-36v105h36v-105z" />
    <glyph glyph-name="parenleft" unicode="(" horiz-adv-x="240" 
d="M137 -43q-45 93 -70 201q-24 102 -24 208q0 103 23 209t69 201l32 -16q-89 -188 -88.5 -393.5t90.5 -393.5z" />
    <glyph glyph-name="parenright" unicode=")" horiz-adv-x="225" 
d="M75 -43l-32 16q90 188 90.5 393.5t-88.5 393.5l32 16q46 -95 69 -201t23 -209q0 -106 -24 -208q-25 -108 -70 -201z" />
    <glyph glyph-name="asterisk" unicode="*" horiz-adv-x="487" 
d="M241 666h-36v107h36v-107zM148 515l-28 22l67 84l28 -22zM185 630l-101 37l12 33l101 -36zM298 515l-67 84l28 22l67 -84zM261 630l-12 34l101 36l12 -33z" />
    <glyph glyph-name="plus" unicode="+" horiz-adv-x="629" 
d="M318 124h-36v214h-202v36h202v193h36v-193h201v-36h-201v-214z" />
    <glyph glyph-name="comma" unicode="," horiz-adv-x="228" 
d="M77 -66l37 109h38l-37 -109h-38z" />
    <glyph glyph-name="hyphen" unicode="-" horiz-adv-x="411" 
d="M80 346v36h239v-36h-239z" />
    <glyph glyph-name="period" unicode="." horiz-adv-x="155" 
d="M99 0h-36v85h36v-85z" />
    <glyph glyph-name="slash" unicode="/" horiz-adv-x="687" 
d="M146 0h-43l430 733h43z" />
    <glyph glyph-name="zero" unicode="0" horiz-adv-x="849" 
d="M563 0h-293q-79 0 -134.5 55.5t-55.5 134.5v353q0 79 55.5 135t134.5 56h293q79 0 134.5 -56t55.5 -135v-353q0 -79 -55.5 -134.5t-134.5 -55.5zM563 698h-293q-64 0 -109.5 -45.5t-45.5 -109.5v-353q0 -64 45.5 -109t109.5 -45h293q64 0 109.5 45t45.5 109v353
q0 64 -45.5 109.5t-109.5 45.5z" />
    <glyph glyph-name="one" unicode="1" horiz-adv-x="452" 
d="M50 697v36h150q42 0 72 -30t30 -71v-632h-36v632q0 27 -19.5 46t-46.5 19h-150z" />
    <glyph glyph-name="two" unicode="2" 
d="M727 0h-662v108q0 55 23 91q25 42 84 71l379 180q35 17 36 17q36 17 54.5 27.5t37 29.5t18.5 40v44q0 38 -26.5 64t-63.5 26h-511v36h511q52 0 88.5 -37t36.5 -89v-44q0 -46 -45 -81q-24 -19 -84 -48l-416 -198q-46 -22 -66.5 -52.5t-20.5 -76.5v-72h627v-36z" />
    <glyph glyph-name="three" unicode="3" horiz-adv-x="821" 
d="M716 488q0 -70 -60 -107q60 -37 60 -107v-149q0 -52 -36.5 -88.5t-88.5 -36.5h-511v36h511q37 0 63.5 26t26.5 63v149q0 37 -26 63t-63 26h-1h-511v36h511h1q37 0 63 26t26 63v119q0 37 -26.5 63.5t-63.5 26.5h-511v36h511q52 0 88.5 -37t36.5 -89v-119z" />
    <glyph glyph-name="four" unicode="4" horiz-adv-x="918" 
d="M843 303v-36h-97v-267h-35v267h-555q-53 0 -78 40q-14 22 -14.5 50.5t9.5 44.5l159 331h40l-167 -346q-16 -31 3 -61q13 -23 48 -23h555v430h35v-430h97z" />
    <glyph glyph-name="five" unicode="5" 
d="M599 0h-519v36h519q37 0 63.5 26t26.5 63v169q0 37 -26.5 63t-63.5 26h-519v351h626v-36h-590v-279h483q52 0 88.5 -36.5t36.5 -88.5v-169q0 -52 -36.5 -88.5t-88.5 -36.5z" />
    <glyph glyph-name="six" unicode="6" horiz-adv-x="887" 
d="M679 0h-474q-52 0 -88.5 36.5t-36.5 88.5v199v5v279q0 52 36.5 89t88.5 37h581v-36h-581q-37 0 -63 -26.5t-26 -63.5v-196q35 37 89 37h474q52 0 88.5 -36.5t36.5 -88.5v-199q0 -52 -36.5 -88.5t-88.5 -36.5zM679 413h-474q-36 0 -61.5 -25t-27.5 -61v-202q0 -37 26 -63
t63 -26h474q37 0 63.5 26t26.5 63v199q0 37 -26.5 63t-63.5 26z" />
    <glyph glyph-name="seven" unicode="7" horiz-adv-x="688" 
d="M250 218v-218h-36v218v17q0 73 40 110l321 282q16 16 16 37q0 4 -1.5 10t-11 14.5t-26.5 8.5h-548v36h548q35 0 58 -25q17 -20 17 -44q0 -36 -28 -62l-321 -284q-28 -26 -28 -82v-18z" />
    <glyph glyph-name="eight" unicode="8" horiz-adv-x="880" 
d="M784 488q0 -70 -60 -107q60 -37 60 -107v-149q0 -52 -36.5 -88.5t-88.5 -36.5h-454q-52 0 -88.5 36.5t-36.5 88.5v149q0 70 60 107q-60 37 -60 107v119q0 52 36.5 89t88.5 37h454q52 0 88.5 -37t36.5 -89v-119zM749 274q0 37 -26 63t-63 26h-456q-37 0 -62.5 -26
t-25.5 -63v-149q0 -37 26 -63t63 -26h454q37 0 63.5 26t26.5 63v149zM204 399h456q37 0 63 26t26 63v119q0 37 -26.5 63.5t-63.5 26.5h-454q-37 0 -63 -26.5t-26 -63.5v-119q0 -37 25.5 -63t62.5 -26z" />
    <glyph glyph-name="nine" unicode="9" horiz-adv-x="892" 
d="M205 734h474q52 0 88.5 -36.5t36.5 -88.5v-199v-5v-279q0 -52 -36.5 -89t-88.5 -37h-581v36h581q37 0 63 26.5t26 63.5v196q-37 -37 -89 -37h-474q-52 0 -88.5 36.5t-36.5 88.5v199q0 52 36.5 88.5t88.5 36.5zM205 321h474q36 0 61.5 25t27.5 60v203q0 37 -26 63t-63 26
h-474q-37 0 -63.5 -26t-26.5 -63v-199q0 -37 26.5 -63t63.5 -26z" />
    <glyph glyph-name="colon" unicode=":" horiz-adv-x="155" 
d="M99 3h-36v85h36v-85zM99 527h-36v85h36v-85z" />
    <glyph glyph-name="semicolon" unicode=";" 
d="M115 -66h-38l37 109h38zM146 529h-36v85h36v-85z" />
    <glyph glyph-name="less" unicode="&#x3c;" horiz-adv-x="631" 
d="M446 56l-346 235l-1 1l-1 1q-20 20 -20 40t20 40h1l347 236l20 -30l-344 -234q-8 -7 -8 -12q0 -6 8 -13l344 -235z" />
    <glyph glyph-name="equal" unicode="=" horiz-adv-x="491" 
d="M82 160v36h333v-36h-333zM82 320v36h333v-36h-333z" />
    <glyph glyph-name="greater" unicode="&#x3e;" horiz-adv-x="541" 
d="M98 56l-20 29l344 235q8 7 8 13q0 5 -8 12l-344 234l20 30l347 -236h1q20 -20 20 -40t-20 -40l-1 -1l-1 -1z" />
    <glyph glyph-name="question" unicode="?" horiz-adv-x="770" 
d="M278 132h-36v99q0 51 33 85q31 32 87 50l213 63q45 14 63 34t18 58v86q0 37 -26 63.5t-64 26.5h-521v36h521q52 0 88.5 -37t36.5 -89v-86q0 -54 -29 -84q-25 -26 -77 -42l-213 -63q-94 -30 -94 -101v-99zM278 0h-36v85h36v-85z" />
    <glyph glyph-name="at" unicode="@" horiz-adv-x="999" 
d="M867 -123h-644q-54 0 -98 52.5t-44 107.5v502q-2 70 46 119q39 41 96 41h520q58 0 96 -41q48 -48 46 -119v-406h-514q-41 0 -78 35q-37 37 -37 77v108q0 39 38 74q37 32 77 32h219q44 0 81 -42q35 -40 35 -84v-164h143v370v1q2 55 -35 93q-31 31 -71 31h-520
q-40 0 -71 -31q-37 -38 -35 -93v-1v-502q0 -43 34 -83q35 -41 72 -41h644v-36zM371 423q-27 0 -53 -23t-26 -47v-108q0 -25 26 -51q25 -25 53 -25h299v164q0 31 -26 60.5t-54 29.5h-219z" />
    <glyph glyph-name="A" unicode="A" horiz-adv-x="890" 
d="M171 222l-86 -222h-39l256 653q15 39 46 63q33 24 75 24q43 0 75 -24q31 -24 47 -63l255 -653h-38l-87 222h-504zM423 705q-29 0 -52.5 -17.5t-35.5 -47.5l-150 -382h476l-150 382q-11 30 -34.5 47.5t-53.5 17.5z" />
    <glyph glyph-name="B" unicode="B" horiz-adv-x="906" 
d="M729 368q30 -16 48 -45.5t18 -64.5v-133q0 -52 -36.5 -88.5t-88.5 -36.5h-572v1h-18v733h580q52 0 88.5 -37t36.5 -89v-136q0 -68 -56 -104zM116 698v-315h544q37 0 63.5 26t26.5 63v136q0 38 -26 64t-64 26h-544zM760 125v133q0 37 -26.5 63t-63.5 26h-554v-311h554
q37 0 63.5 26t26.5 63z" />
    <glyph glyph-name="C" unicode="C" horiz-adv-x="867" 
d="M769 734v-36h-499q-64 0 -109.5 -45.5t-45.5 -109.5v-353q0 -64 45.5 -109t109.5 -45h499v-36h-499q-79 0 -134.5 55.5t-55.5 134.5v353q0 79 55.5 135t134.5 56h499z" />
    <glyph glyph-name="D" unicode="D" horiz-adv-x="978" 
d="M673 0h-593v733h593q79 0 134.5 -56t55.5 -135v-352q0 -79 -55.5 -134.5t-134.5 -55.5zM115 36h558q64 0 109.5 45t45.5 109v352q0 64 -45.5 109.5t-109.5 45.5h-558v-661z" />
    <glyph glyph-name="E" unicode="E" horiz-adv-x="838" 
d="M80 123v487q0 51 36 87t86 36h543v-35h-543q-36 0 -61.5 -26t-25.5 -62v-226h592v-36h-592v-225q0 -36 25.5 -61.5t61.5 -25.5h543v-36h-543q-50 0 -86 36t-36 87z" />
    <glyph glyph-name="F" unicode="F" horiz-adv-x="762" 
d="M203 698q-36 0 -61.5 -26t-25.5 -62v-214h542v-36h-542v-360h-35v610q0 51 36 87t86 36h493v-35h-493z" />
    <glyph glyph-name="G" unicode="G" horiz-adv-x="926" 
d="M802 0h-533q-78 0 -133.5 55.5t-55.5 134.5v351q0 78 55 135t134 57h529v-36h-529q-64 0 -109 -45.5t-45 -110.5v-351q0 -64 45 -109t109 -45h498v311h-306v36h341v-383z" />
    <glyph glyph-name="H" unicode="H" horiz-adv-x="920" 
d="M799 0h-36v348h-644v-348h-36v733h36v-349h644v349h36v-733z" />
    <glyph glyph-name="I" unicode="I" horiz-adv-x="246" 
d="M127 0h-36v733h36v-733z" />
    <glyph glyph-name="J" unicode="J" horiz-adv-x="601" 
d="M448 733h35v-543q0 -79 -55.5 -134.5t-134.5 -55.5h-233v36h233q64 0 109.5 45t45.5 109v543z" />
    <glyph glyph-name="K" unicode="K" horiz-adv-x="927" 
d="M590 359q22 -17 52 -63l206 -296h-43l-192 276q-28 41 -47 56.5t-49 15.5h-401v-348h-35v733h35v-349h401q30 0 49 15.5t47 57.5l192 276h44l-207 -296q-30 -46 -52 -64q-2 -1 -5 -3.5t-4 -3.5q6 -4 9 -7z" />
    <glyph glyph-name="L" unicode="L" horiz-adv-x="734" 
d="M652 0h-470q-42 0 -72 30t-30 71v632h36v-632q0 -27 19.5 -46t46.5 -19h470v-36z" />
    <glyph glyph-name="M" unicode="M" horiz-adv-x="1182" 
d="M1050 662v-662h-36v662q0 27 -20 33q-27 8 -44 -18l-385 -569l-385 569q-18 27 -44 18q-20 -6 -20 -33v-662h-36v662q0 27 13 44q10 16 32 23q23 8 46 -1q25 -10 39 -30l355 -526l355 526q14 20 39 30q22 9 46 1q20 -6 32 -23q13 -17 13 -44z" />
    <glyph glyph-name="N" unicode="N" horiz-adv-x="976" 
d="M116 662v-662h-36v662q0 27 13 44q10 16 32 23q23 8 46 -1q24 -8 38 -30l526 -646v-1q19 -26 45 -18q20 6 20 34v666h36v-666q0 -25 -13 -44q-13 -18 -32 -24q-25 -7 -46 2q-24 8 -39 29l-525 647h-1q-18 27 -44 18q-20 -6 -20 -33z" />
    <glyph glyph-name="O" unicode="O" horiz-adv-x="1082" 
d="M743 0h-473q-79 0 -134.5 55.5t-55.5 134.5v353q0 79 55.5 135t134.5 56h473q79 0 134.5 -56t55.5 -135v-353q0 -79 -55.5 -134.5t-134.5 -55.5zM743 698h-473q-64 0 -109.5 -45.5t-45.5 -109.5v-353q0 -64 45.5 -109t109.5 -45h473q64 0 109.5 45t45.5 109v353
q0 64 -45.5 109.5t-109.5 45.5z" />
    <glyph glyph-name="P" unicode="P" horiz-adv-x="859" 
d="M631 282h-513v-281h-36v733h549q52 0 88.5 -37t36.5 -89v-201q0 -52 -36.5 -88.5t-88.5 -36.5zM118 698v-380h513q37 0 63.5 26t26.5 63v201q0 38 -26.5 64t-63.5 26h-513z" />
    <glyph glyph-name="Q" unicode="Q" horiz-adv-x="1009" 
d="M519 -80h-36v80h-213q-79 0 -134.5 55.5t-55.5 134.5v353q0 79 55.5 135t134.5 56h443q79 0 134.5 -56t55.5 -135v-353q0 -79 -55.5 -134.5t-134.5 -55.5h-194v-80zM713 698h-443q-64 0 -109.5 -45.5t-45.5 -109.5v-353q0 -64 45.5 -109t109.5 -45h213v97h36v-97h194
q64 0 109.5 45t45.5 109v353q0 64 -45.5 109.5t-109.5 45.5z" />
    <glyph glyph-name="R" unicode="R" horiz-adv-x="909" 
d="M819 0h-45l-213 282h-444v-281h-36v733h582q52 0 88.5 -37t36.5 -89v-201q0 -52 -36.5 -88.5t-88.5 -36.5h-57zM117 698v-380h546q37 0 63.5 26t26.5 63v201q0 38 -26.5 64t-63.5 26h-546z" />
    <glyph glyph-name="S" unicode="S" horiz-adv-x="879" 
d="M619 0h-538v36h538q47 0 76.5 27.5t29.5 70.5v87q0 3 -1 8.5t-6.5 17.5t-15.5 22t-30.5 20.5t-48.5 15.5v1l-380 86q-60 13 -100 33q-31 15 -47 36q-21 25 -21 59v72q-1 62 38 101q38 41 91 41h526v-36h-526q-38 0 -65 -29q-29 -29 -28 -77v-72q0 -63 140 -93l379 -86
q81 -16 114 -68q17 -28 17 -53v-86q0 -58 -41 -96q-38 -38 -101 -38z" />
    <glyph glyph-name="T" unicode="T" horiz-adv-x="756" 
d="M366 0h-36v697h-330v36h697v-36h-331v-697z" />
    <glyph glyph-name="U" unicode="U" horiz-adv-x="947" 
d="M80 733h35v-543q0 -64 45.5 -109t109.5 -45h373q64 0 109.5 45t45.5 109v543h35v-543q0 -79 -55.5 -134.5t-134.5 -55.5h-373q-79 0 -134.5 55.5t-55.5 134.5v543z" />
    <glyph glyph-name="V" unicode="V" horiz-adv-x="889" 
d="M436 0q-44 0 -75 25q-32 23 -46 63l-254 645h39l248 -633q24 -64 88 -64q62 0 88 64v1l249 632h39l-255 -645q-15 -40 -46 -63q-31 -25 -75 -25z" />
    <glyph glyph-name="W" unicode="W" horiz-adv-x="1564" 
d="M1116 -4q-41 0 -73 23q-28 24 -48 63v1v1l-228 592q-8 22 -24 22t-24 -22l-228 -593v-1q-20 -39 -48 -63q-32 -23 -73 -23q-44 0 -75 25q-32 23 -46 63l-254 649h38l249 -637q24 -64 88 -64q56 0 88 65l228 592q16 44 57 44t57 -44l228 -592q32 -65 88 -65q64 0 88 64
l249 637h39l-255 -649q-14 -40 -46 -63q-31 -25 -75 -25z" />
    <glyph glyph-name="X" unicode="X" horiz-adv-x="781" 
d="M705 0h-46l-286 337l-285 -337h-48l309 365l-311 368h46l288 -341l288 341h49l-313 -369z" />
    <glyph glyph-name="Y" unicode="Y" horiz-adv-x="887" 
d="M408 279v-279h-36v279q-34 5 -56 25t-51 62l-255 367h43l242 -346q29 -42 47.5 -57.5t47.5 -15.5q30 0 49 15.5t47 56.5l241 347h44l-256 -367q-28 -43 -52 -63q-24 -21 -55 -24z" />
    <glyph glyph-name="Z" unicode="Z" 
d="M718 0h-564q-37 0 -57 24q-17 19 -17 44q0 38 28 63v1l561 497q16 14 16 36q0 4 -1.5 10t-11 14.5t-26.5 8.5h-548v36h548q35 0 58 -25q17 -20 17 -44q0 -37 -28 -63l-561 -497q-16 -14 -16 -37q0 -4 1 -9.5t10.5 -14t26.5 -8.5h564v-36z" />
    <glyph glyph-name="bracketleft" unicode="[" horiz-adv-x="301" 
d="M115 677v-621q0 -9 6 -15q8 -6 15 -6h61v-35h-61q-24 0 -40 16t-16 40v621q0 24 16 40t40 16h61v-35h-61q-7 0 -15 -6q-6 -6 -6 -15z" />
    <glyph glyph-name="backslash" unicode="\" horiz-adv-x="699" 
d="M576 0h-43l-430 733h43z" />
    <glyph glyph-name="bracketright" unicode="]" horiz-adv-x="296" 
d="M162 56v621q0 9 -6 15q-8 6 -15 6h-61v35h61q24 0 40 -16t16 -40v-621q0 -24 -16 -40t-40 -16h-61v35h61q7 0 15 6q6 6 6 15z" />
    <glyph glyph-name="underscore" unicode="_" horiz-adv-x="574" 
d="M32 -36v36h523v-36h-523z" />
    <glyph glyph-name="grave" unicode="`" 
d="M451 604h-43l-65 109h43z" />
    <glyph glyph-name="a" unicode="a" horiz-adv-x="907" 
d="M355 640l-250 -640h-39l256 653q15 39 46 63q33 24 75 24q44 0 75 -24t47 -63l255 -653h-38l-87 222h-424v36h410l-150 382q-11 30 -34.5 47.5t-53.5 17.5q-29 0 -52.5 -17.5t-35.5 -47.5z" />
    <glyph glyph-name="b" unicode="b" horiz-adv-x="877" 
d="M688 369q30 -16 48 -45.5t18 -64.5v-134q0 -52 -36.5 -88.5t-88.5 -36.5h-531v1h-18v733h539q52 0 88.5 -37t36.5 -89v-135q0 -68 -56 -104zM177 348v36h442q37 0 63.5 26t26.5 63v135q0 38 -26.5 64t-63.5 26h-503v-662h513q37 0 63.5 26t26.5 63v134q0 37 -26.5 63
t-63.5 26h-452z" />
    <glyph glyph-name="c" unicode="c" horiz-adv-x="867" 
d="M769 734v-36h-499q-64 0 -109.5 -45.5t-45.5 -109.5v-353q0 -64 45.5 -109t109.5 -45h499v-36h-499q-79 0 -134.5 55.5t-55.5 134.5v353q0 79 55.5 135t134.5 56h499z" />
    <glyph glyph-name="d" unicode="d" horiz-adv-x="965" 
d="M115 0h-35v733h583q79 0 134.5 -56t55.5 -135v-352q0 -79 -55.5 -134.5t-134.5 -55.5h-486v36h486q64 0 109.5 45t45.5 109v352q0 64 -45.5 109.5t-109.5 45.5h-548v-697z" />
    <glyph glyph-name="e" unicode="e" horiz-adv-x="826" 
d="M177 348v36h530v-36h-530zM115 610v-487q0 -36 25.5 -61.5t61.5 -25.5h543v-36h-543q-50 0 -86 36t-36 87v487q0 51 36 87t86 36h543v-35h-543q-36 0 -61.5 -26t-25.5 -62z" />
    <glyph glyph-name="f" unicode="f" horiz-adv-x="762" 
d="M203 698q-36 0 -61.5 -26t-25.5 -62v-214h542v-36h-542v-360h-35v610q0 51 36 87t86 36h493v-35h-493z" />
    <glyph glyph-name="g" unicode="g" horiz-adv-x="926" 
d="M802 0h-533q-78 0 -133.5 55.5t-55.5 134.5v351q0 78 55 135t134 57h529v-36h-529q-64 0 -109 -45.5t-45 -110.5v-351q0 -64 45 -109t109 -45h498v311h-306v36h341v-383z" />
    <glyph glyph-name="h" unicode="h" horiz-adv-x="937" 
d="M816 0h-36v348h-603v36h603v349h36v-733zM116 0h-36v733h36v-733z" />
    <glyph glyph-name="i" unicode="i" horiz-adv-x="246" 
d="M127 0h-36v733h36v-733z" />
    <glyph glyph-name="j" unicode="j" horiz-adv-x="601" 
d="M448 733h35v-543q0 -79 -55.5 -134.5t-134.5 -55.5h-233v36h233q64 0 109.5 45t45.5 109v543z" />
    <glyph glyph-name="k" unicode="k" horiz-adv-x="927" 
d="M115 733v-733h-35v733h35zM177 348v36h339q30 0 49 15.5t47 57.5l192 276h44l-207 -296q-30 -46 -52 -64q-2 -1 -5 -3.5t-4 -3.5q6 -4 9 -7q22 -17 52 -63l206 -296h-43l-192 276q-28 41 -47 56.5t-49 15.5h-339z" />
    <glyph glyph-name="l" unicode="l" horiz-adv-x="734" 
d="M652 0h-470q-42 0 -72 30t-30 71v632h36v-632q0 -27 19.5 -46t46.5 -19h470v-36z" />
    <glyph glyph-name="m" unicode="m" horiz-adv-x="1125" 
d="M988 0h-36v677l-404 -562h-29l-403 562v-677h-36v733h40l414 -577l414 577h40v-733z" />
    <glyph glyph-name="n" unicode="n" horiz-adv-x="989" 
d="M818 0l-661 688v-687h-36v732h43l659 -687v687h36v-733h-41z" />
    <glyph glyph-name="o" unicode="o" horiz-adv-x="1057" 
d="M743 0h-473q-79 0 -134.5 55.5t-55.5 134.5v353q0 79 55.5 135t134.5 56h473q79 0 134.5 -56t55.5 -135v-353q0 -79 -55.5 -134.5t-134.5 -55.5zM743 698h-473q-64 0 -109.5 -45.5t-45.5 -109.5v-353q0 -64 45.5 -109t109.5 -45h473q64 0 109.5 45t45.5 109v353
q0 64 -45.5 109.5t-109.5 45.5z" />
    <glyph glyph-name="p" unicode="p" horiz-adv-x="870" 
d="M116 698v-697h-36v733h549q52 0 88.5 -37t36.5 -89v-201q0 -52 -36.5 -88.5t-88.5 -36.5h-452v36h452q37 0 63.5 26t26.5 63v201q0 38 -26.5 64t-63.5 26h-513z" />
    <glyph glyph-name="q" unicode="q" horiz-adv-x="1009" 
d="M713 0h-443q-79 0 -134.5 55.5t-55.5 134.5v353q0 79 55.5 135t134.5 56h443q79 0 134.5 -56t55.5 -135v-353q0 -63 -39 -115l79 -75h-48l-53 51q-54 -51 -129 -51zM713 698h-443q-64 0 -109.5 -45.5t-45.5 -109.5v-353q0 -64 45.5 -109t109.5 -45h443q60 0 103 40
l-141 137h48l116 -113q29 40 29 90v353q0 64 -45.5 109.5t-109.5 45.5z" />
    <glyph glyph-name="r" unicode="r" horiz-adv-x="922" 
d="M116 698v-697h-36v733h559q52 0 88.5 -37t36.5 -89v-201q0 -52 -36.5 -88.5t-88.5 -36.5h-57l213 -282h-45l-213 282h-360v36h462q37 0 63.5 26t26.5 63v201q0 38 -26.5 64t-63.5 26h-523z" />
    <glyph glyph-name="s" unicode="s" 
d="M619 0h-538v36h538q47 0 76.5 27.5t29.5 70.5v87q0 3 -1 8.5t-6.5 17.5t-15.5 22t-30.5 20.5t-48.5 15.5v1l-380 86q-60 13 -100 33q-31 15 -47 36q-21 25 -21 59v72q-1 62 38 101q38 41 91 41h526v-36h-526q-38 0 -65 -29q-29 -29 -28 -77v-72q0 -63 140 -93l379 -86
q81 -16 114 -68q17 -28 17 -53v-86q0 -58 -41 -96q-38 -38 -101 -38z" />
    <glyph glyph-name="t" unicode="t" horiz-adv-x="756" 
d="M366 0h-36v697h-330v36h697v-36h-331v-697z" />
    <glyph glyph-name="u" unicode="u" horiz-adv-x="947" 
d="M80 733h35v-543q0 -64 45.5 -109t109.5 -45h373q64 0 109.5 45t45.5 109v543h35v-543q0 -79 -55.5 -134.5t-134.5 -55.5h-373q-79 0 -134.5 55.5t-55.5 134.5v543z" />
    <glyph glyph-name="v" unicode="v" horiz-adv-x="889" 
d="M436 0q-44 0 -75 25q-32 23 -46 63l-254 645h39l248 -633q24 -64 88 -64q62 0 88 64v1l249 632h39l-255 -645q-15 -40 -46 -63q-31 -25 -75 -25z" />
    <glyph glyph-name="w" unicode="w" horiz-adv-x="1564" 
d="M1116 -4q-41 0 -73 23q-28 24 -48 63v1v1l-228 592q-8 22 -24 22t-24 -22l-228 -593v-1q-20 -39 -48 -63q-32 -23 -73 -23q-44 0 -75 25q-32 23 -46 63l-254 649h38l249 -637q24 -64 88 -64q56 0 88 65l228 592q16 44 57 44t57 -44l228 -592q32 -65 88 -65q64 0 88 64
l249 637h39l-255 -649q-14 -40 -46 -63q-31 -25 -75 -25z" />
    <glyph glyph-name="x" unicode="x" horiz-adv-x="781" 
d="M705 0h-46l-286 337l-285 -337h-48l309 365l-311 368h46l288 -341l288 341h49l-313 -369z" />
    <glyph glyph-name="y" unicode="y" horiz-adv-x="830" 
d="M390 278q-29 0 -53 13.5t-37 28.5t-35 46l-255 367h43l242 -346q29 -42 47.5 -57.5t47.5 -15.5q30 0 49 15.5t47 56.5l241 347h44l-256 -367q-28 -43 -52 -63q-29 -25 -73 -25zM408 0h-36v257h36v-257z" />
    <glyph glyph-name="z" unicode="z" 
d="M718 0h-564q-37 0 -57 24q-17 19 -17 44q0 38 28 63v1l561 497q16 14 16 36q0 4 -1.5 10t-11 14.5t-26.5 8.5h-548v36h548q35 0 58 -25q17 -20 17 -44q0 -37 -28 -63l-561 -497q-16 -14 -16 -37q0 -4 1 -9.5t10.5 -14t26.5 -8.5h564v-36z" />
    <glyph glyph-name="braceleft" unicode="{" horiz-adv-x="310" 
d="M243 0h-24q-36 0 -61.5 26t-25.5 62v209q0 22 -15.5 37t-36.5 15v36q21 0 36.5 15t15.5 37v209q0 36 25.5 62t61.5 26h24v-36h-24q-21 0 -36 -15.5t-15 -36.5v-209q0 -43 -35 -70q35 -27 35 -70v-209q0 -22 15 -37t36 -15h24v-36z" />
    <glyph glyph-name="bar" unicode="|" 
d="M127 -100h-36v903h36v-903z" />
    <glyph glyph-name="braceright" unicode="}" horiz-adv-x="259" 
d="M35 0v36h24q21 0 36 15t15 37v209q0 43 35 70q-35 27 -35 70v209q0 21 -15 36.5t-36 15.5h-24v36h24q36 0 61.5 -26t25.5 -62v-209q0 -22 15.5 -37t36.5 -15v-36q-21 0 -36.5 -15t-15.5 -37v-209q0 -36 -25.5 -62t-61.5 -26h-24z" />
    <glyph glyph-name="asciitilde" unicode="~" 
 />
    <glyph glyph-name="cent" unicode="&#xa2;" horiz-adv-x="867" 
d="M451 -82h-36v82h-145q-79 0 -134.5 55.5t-55.5 134.5v353q0 79 55.5 135t134.5 56h145v69h36v-69h318v-36h-499q-64 0 -109.5 -45.5t-45.5 -109.5v-353q0 -64 45.5 -109t109.5 -45h499v-36h-318v-82z" />
    <glyph glyph-name="sterling" unicode="&#xa3;" horiz-adv-x="749" 
d="M675 36v-36h-591v36q36 0 62 25.5t26 61.5v225h-89v36h89v226q0 51 36 87t86 36h242q51 0 87 -36t36 -87h-36q0 36 -25.5 62t-61.5 26h-242q-36 0 -61.5 -26t-25.5 -62v-226h431v-36h-431v-225q0 -51 -36 -87h504z" />
    <glyph glyph-name="currency" unicode="&#xa4;" horiz-adv-x="745" 
d="M608 381q0 -97 -63 -169l97 -97l-25 -25l-97 97q-72 -63 -168 -63q-97 0 -169 63l-97 -97l-25 25l97 97q-63 72 -63 169t63 169l-97 97l25 25l97 -97q72 63 169 63q96 0 168 -63l97 97l25 -25l-97 -97q63 -72 63 -169zM195 225q65 -65 157 -65q91 0 156 65q65 63 65 156
t-65 156q-65 65 -156 65q-92 0 -157 -65q-65 -63 -65 -156t65 -156z" />
    <glyph glyph-name="yen" unicode="&#xa5;" horiz-adv-x="887" 
d="M408 106v-106h-36v106h-145v36h145v54h-145v36h145v47q-34 5 -56 25t-51 62l-255 367h43l242 -346q29 -42 47.5 -57.5t47.5 -15.5q30 0 49 15.5t47 56.5l241 347h44l-256 -367q-28 -43 -52 -63q-24 -21 -55 -24v-47h152v-36h-152v-54h152v-36h-152z" />
    <glyph glyph-name="dieresis" unicode="&#xa8;" 
d="M335 605h-36v85h36v-85zM495 605h-36v85h36v-85z" />
    <glyph glyph-name="copyright" unicode="&#xa9;" horiz-adv-x="599" 
d="M278 239q-92 0 -156.5 65t-64.5 157t64.5 156.5t156.5 64.5t156.5 -64.5t64.5 -156.5t-65 -157t-156 -65zM278 643q-75 0 -128 -53.5t-53 -128.5t52.5 -128t128.5 -53q74 0 127 53t53 128t-53 128.5t-127 53.5zM338 510q-11 44 -60 44q-72 0 -72 -89q0 -43 20.5 -65
t51.5 -22q49 0 63 59h31q-5 -39 -30.5 -62.5t-67.5 -23.5q-46 0 -73 29.5t-27 88.5q0 49 28 81t76 32q38 0 63.5 -19t28.5 -53h-32z" />
    <glyph glyph-name="registered" unicode="&#xae;" horiz-adv-x="422" 
d="M211 417q-66 0 -112 46.5t-46 111.5q0 66 46 112t112 46q65 0 111.5 -46t46.5 -112q0 -65 -46.5 -111.5t-111.5 -46.5zM211 705q-54 0 -92 -38t-38 -92q0 -53 38 -91t92 -38q53 0 91 38t38 91q0 54 -38 92t-91 38zM153 659h75q51 0 51 -42q0 -27 -22 -38q17 -9 20 -30
v-20q0 -19 5 -27h-25q-3 15 -3 19l-1 23q0 14 -7 19t-23 5h-47v-66h-23v157zM176 641v-53h49q31 0 31 26q0 27 -30 27h-50z" />
    <glyph glyph-name="macron" unicode="&#xaf;" 
d="M272 625v36h324v-36h-324z" />
    <glyph glyph-name="degree" unicode="&#xb0;" horiz-adv-x="319" 
d="M151 594q-41 0 -70 29t-29 70t29 70.5t70 29.5t70.5 -29.5t29.5 -70.5t-29.5 -70t-70.5 -29zM151 757q-26 0 -44.5 -19t-18.5 -45t18.5 -45t44.5 -19q27 0 45.5 19t18.5 45t-18.5 45t-45.5 19z" />
    <glyph glyph-name="acute" unicode="&#xb4;" 
d="M426 604h-43l65 109h43z" />
    <glyph glyph-name="periodcentered" unicode="&#xb7;" horiz-adv-x="155" 
d="M99 300h-36v85h36v-85z" />
    <glyph glyph-name="cedilla" unicode="&#xb8;" 
d="M513 -193h-138v36h136q17 2 28 14t11 28q0 17 -11.5 29.5t-27.5 13.5h-108l33 96l34 -12l-17 -49h60h1q31 -2 51 -25q21 -21 21 -53t-21 -53q-19 -22 -51 -25h-1z" />
    <glyph glyph-name="questiondown" unicode="&#xbf;" horiz-adv-x="770" 
d="M278 601v-99q0 -71 94 -101l213 -63q52 -16 77 -42q29 -30 29 -84v-86q0 -52 -36.5 -89t-88.5 -37h-521v36h521q38 0 64 26t26 64v86q0 38 -18 58t-63 34l-213 63q-56 18 -87 50q-33 35 -33 85v99h36zM242 733h36v-85h-36v85z" />
    <glyph glyph-name="Agrave" unicode="&#xc0;" horiz-adv-x="890" 
d="M85 0l86 222h504l87 -222h38l-255 653q-16 39 -47 63q-32 24 -75 24q-42 0 -75 -24q-31 -24 -46 -63l-256 -653h39zM423 705q30 0 53.5 -17.5t34.5 -47.5l150 -382h-476l150 382q12 30 35.5 47.5t52.5 17.5zM478 772h-43l-65 109h43z" />
    <glyph glyph-name="Aacute" unicode="&#xc1;" horiz-adv-x="890" 
d="M171 222l-86 -222h-39l256 653q15 39 46 63q33 24 75 24q43 0 75 -24q31 -24 47 -63l255 -653h-38l-87 222h-504zM423 705q-29 0 -52.5 -17.5t-35.5 -47.5l-150 -382h476l-150 382q-11 30 -34.5 47.5t-53.5 17.5zM434 810h-43l65 109h43z" />
    <glyph glyph-name="Acircumflex" unicode="&#xc2;" horiz-adv-x="890" 
d="M171 222l-86 -222h-39l256 653q15 39 46 63q33 24 75 24q43 0 75 -24q31 -24 47 -63l255 -653h-38l-87 222h-504zM423 705q-29 0 -52.5 -17.5t-35.5 -47.5l-150 -382h476l-150 382q-11 30 -34.5 47.5t-53.5 17.5zM418 878l132 -106h-56l-76 60l-77 -60h-58z" />
    <glyph glyph-name="Atilde" unicode="&#xc3;" horiz-adv-x="890" 
d="M171 222l-86 -222h-39l256 653q15 39 46 63q33 24 75 24q43 0 75 -24q31 -24 47 -63l255 -653h-38l-87 222h-504zM423 705q-29 0 -52.5 -17.5t-35.5 -47.5l-150 -382h476l-150 382q-11 30 -34.5 47.5t-53.5 17.5zM492 781q-43 0 -77 22q-31 21 -72 16q-39 -5 -65 -34
l-27 24q36 39 87 45q52 8 96 -21q35 -20 72 -16q40 6 66 34l26 -24q-36 -39 -87 -45q-6 -1 -19 -1z" />
    <glyph glyph-name="Adieresis" unicode="&#xc4;" horiz-adv-x="890" 
d="M171 222l-86 -222h-39l256 653q15 39 46 63q33 24 75 24q43 0 75 -24q31 -24 47 -63l255 -653h-38l-87 222h-504zM423 705q-29 0 -52.5 -17.5t-35.5 -47.5l-150 -382h476l-150 382q-11 30 -34.5 47.5t-53.5 17.5zM358 811h-36v85h36v-85zM518 811h-36v85h36v-85z" />
    <glyph glyph-name="Aring" unicode="&#xc5;" horiz-adv-x="890" 
d="M171 222l-86 -222h-39l256 653q15 39 46 63q33 24 75 24q43 0 75 -24q31 -24 47 -63l255 -653h-38l-87 222h-504zM423 705q-29 0 -52.5 -17.5t-35.5 -47.5l-150 -382h476l-150 382q-11 30 -34.5 47.5t-53.5 17.5z" />
    <glyph glyph-name="AE" unicode="&#xc6;" horiz-adv-x="1413" 
d="M660 609v-226v-29h583v-36h-583v-196q0 -36 25.5 -61.5t61.5 -25.5h543v-36h-543q-50 0 -86 36t-36 87v196h-419l-124 -319h-39l256 653q15 39 46 63q33 24 75 24q44 0 75 -24t42 -50l88 -230v174q0 51 36 87t86 36h543v-35h-543q-36 0 -61.5 -26t-25.5 -62zM332 639
l-112 -285h398l-115 298q-8 21 -31 36.5t-52 15.5t-52.5 -17.5t-35.5 -47.5z" />
    <glyph glyph-name="Ccedilla" unicode="&#xc7;" horiz-adv-x="867" 
d="M487 -193h-139v36h136q17 2 28 14t11 28q0 17 -11.5 29.5t-27.5 13.5h-108l25 72h-131q-79 0 -134.5 55.5t-55.5 134.5v353q0 79 55.5 135t134.5 56h499v-36h-499q-64 0 -109.5 -45.5t-45.5 -109.5v-353q0 -64 45.5 -109t109.5 -45h499v-36h-330l-13 -37h61q31 -2 51 -25
q21 -21 21 -53t-21 -53q-19 -22 -51 -25z" />
    <glyph glyph-name="Egrave" unicode="&#xc8;" horiz-adv-x="826" 
d="M80 123v487q0 51 36 87t86 36h543v-35h-543q-36 0 -61.5 -26t-25.5 -62v-226h592v-36h-592v-225q0 -36 25.5 -61.5t61.5 -25.5h543v-36h-543q-50 0 -86 36t-36 87zM457 770h-43l-65 109h43z" />
    <glyph glyph-name="Eacute" unicode="&#xc9;" horiz-adv-x="826" 
d="M80 123v487q0 51 36 87t86 36h543v-35h-543q-36 0 -61.5 -26t-25.5 -62v-226h592v-36h-592v-225q0 -36 25.5 -61.5t61.5 -25.5h543v-36h-543q-50 0 -86 36t-36 87zM402 810h-43l65 109h43z" />
    <glyph glyph-name="Ecircumflex" unicode="&#xca;" horiz-adv-x="879" 
d="M80 123v487q0 51 36 87t86 36h543v-35h-543q-36 0 -61.5 -26t-25.5 -62v-226h592v-36h-592v-225q0 -36 25.5 -61.5t61.5 -25.5h543v-36h-543q-50 0 -86 36t-36 87zM421 878l132 -106h-56l-76 60l-77 -60h-58z" />
    <glyph glyph-name="Edieresis" unicode="&#xcb;" horiz-adv-x="826" 
d="M80 123v487q0 51 36 87t86 36h543v-35h-543q-36 0 -61.5 -26t-25.5 -62v-226h592v-36h-592v-225q0 -36 25.5 -61.5t61.5 -25.5h543v-36h-543q-50 0 -86 36t-36 87zM343 770h-36v85h36v-85zM503 770h-36v85h36v-85z" />
    <glyph glyph-name="Igrave" unicode="&#xcc;" horiz-adv-x="289" 
d="M103 0h36v733h-36v-733zM170 770h-43l-65 109h43z" />
    <glyph glyph-name="Iacute" unicode="&#xcd;" horiz-adv-x="289" 
d="M139 0h-36v733h36v-733zM134 775h-43l65 109h43z" />
    <glyph glyph-name="Icircumflex" unicode="&#xce;" horiz-adv-x="289" 
d="M139 0h-36v733h36v-733zM124 876l132 -106h-56l-76 60l-77 -60h-58z" />
    <glyph glyph-name="Idieresis" unicode="&#xcf;" horiz-adv-x="242" 
d="M139 0h-36v733h36v-733zM54 771h-36v85h36v-85zM214 771h-36v85h36v-85z" />
    <glyph glyph-name="Eth" unicode="&#xd0;" horiz-adv-x="982" 
d="M673 0h-593v365h-118v36h118v332h593q79 0 134.5 -56t55.5 -135v-352q0 -79 -55.5 -134.5t-134.5 -55.5zM115 36h558q64 0 109.5 45t45.5 109v352q0 64 -45.5 109.5t-109.5 45.5h-558v-296h330v-36h-330v-329z" />
    <glyph glyph-name="Ntilde" unicode="&#xd1;" horiz-adv-x="970" 
d="M116 662v-662h-36v662q0 27 13 44q10 16 32 23q23 8 46 -1q24 -8 38 -30l526 -646v-1q19 -26 45 -18q20 6 20 34v666h36v-666q0 -25 -13 -44q-13 -18 -32 -24q-25 -7 -46 2q-24 8 -39 29l-525 647h-1q-18 27 -44 18q-20 -6 -20 -33zM528 771q-43 0 -77 22q-31 21 -72 16
q-39 -5 -65 -34l-27 24q36 39 87 45q52 8 96 -21q35 -20 72 -16q40 6 66 34l26 -24q-36 -39 -87 -45q-6 -1 -19 -1z" />
    <glyph glyph-name="Ograve" unicode="&#xd2;" horiz-adv-x="989" 
d="M743 0q79 0 134.5 55.5t55.5 134.5v353q0 79 -55.5 135t-134.5 56h-473q-79 0 -134.5 -56t-55.5 -135v-353q0 -79 55.5 -134.5t134.5 -55.5h473zM270 698h473q64 0 109.5 -45.5t45.5 -109.5v-353q0 -64 -45.5 -109t-109.5 -45h-473q-64 0 -109.5 45t-45.5 109v353
q0 64 45.5 109.5t109.5 45.5zM528 770h-43l-65 109h43z" />
    <glyph glyph-name="Oacute" unicode="&#xd3;" horiz-adv-x="989" 
d="M743 0h-473q-79 0 -134.5 55.5t-55.5 134.5v353q0 79 55.5 135t134.5 56h473q79 0 134.5 -56t55.5 -135v-353q0 -79 -55.5 -134.5t-134.5 -55.5zM743 698h-473q-64 0 -109.5 -45.5t-45.5 -109.5v-353q0 -64 45.5 -109t109.5 -45h473q64 0 109.5 45t45.5 109v353
q0 64 -45.5 109.5t-109.5 45.5zM483 810h-43l65 109h43z" />
    <glyph glyph-name="Ocircumflex" unicode="&#xd4;" horiz-adv-x="989" 
d="M743 0h-473q-79 0 -134.5 55.5t-55.5 134.5v353q0 79 55.5 135t134.5 56h473q79 0 134.5 -56t55.5 -135v-353q0 -79 -55.5 -134.5t-134.5 -55.5zM743 698h-473q-64 0 -109.5 -45.5t-45.5 -109.5v-353q0 -64 45.5 -109t109.5 -45h473q64 0 109.5 45t45.5 109v353
q0 64 -45.5 109.5t-109.5 45.5zM496 875l132 -106h-56l-76 60l-77 -60h-58z" />
    <glyph glyph-name="Otilde" unicode="&#xd5;" horiz-adv-x="989" 
d="M743 0h-473q-79 0 -134.5 55.5t-55.5 134.5v353q0 79 55.5 135t134.5 56h473q79 0 134.5 -56t55.5 -135v-353q0 -79 -55.5 -134.5t-134.5 -55.5zM743 698h-473q-64 0 -109.5 -45.5t-45.5 -109.5v-353q0 -64 45.5 -109t109.5 -45h473q64 0 109.5 45t45.5 109v353
q0 64 -45.5 109.5t-109.5 45.5zM562 791q-43 0 -77 22q-31 21 -72 16q-39 -5 -65 -34l-27 24q36 39 87 45q52 8 96 -21q35 -20 72 -16q40 6 66 34l26 -24q-36 -39 -87 -45q-6 -1 -19 -1z" />
    <glyph glyph-name="Odieresis" unicode="&#xd6;" horiz-adv-x="989" 
d="M743 0h-473q-79 0 -134.5 55.5t-55.5 134.5v353q0 79 55.5 135t134.5 56h473q79 0 134.5 -56t55.5 -135v-353q0 -79 -55.5 -134.5t-134.5 -55.5zM743 698h-473q-64 0 -109.5 -45.5t-45.5 -109.5v-353q0 -64 45.5 -109t109.5 -45h473q64 0 109.5 45t45.5 109v353
q0 64 -45.5 109.5t-109.5 45.5zM422 811h-36v85h36v-85zM582 811h-36v85h36v-85z" />
    <glyph glyph-name="Oslash" unicode="&#xd8;" horiz-adv-x="989" 
d="M743 0h-485q-75 5 -126.5 59.5t-51.5 130.5v353q0 79 55.5 135t134.5 56h473q79 0 134.5 -56t55.5 -135v-353q0 -79 -55.5 -134.5t-134.5 -55.5zM322 36h421q64 0 109.5 45t45.5 109v353q0 64 -45.5 109.5t-109.5 45.5h-33zM667 698h-397q-64 0 -109.5 -45.5
t-45.5 -109.5v-353q0 -64 45.5 -109t109.5 -45h9z" />
    <glyph glyph-name="Ugrave" unicode="&#xd9;" horiz-adv-x="947" 
d="M115 733h-35v-543q0 -79 55.5 -134.5t134.5 -55.5h373q79 0 134.5 55.5t55.5 134.5v543h-35v-543q0 -64 -45.5 -109t-109.5 -45h-373q-64 0 -109.5 45t-45.5 109v543zM484 772h-43l-65 109h43z" />
    <glyph glyph-name="Uacute" unicode="&#xda;" horiz-adv-x="947" 
d="M80 733h35v-543q0 -64 45.5 -109t109.5 -45h373q64 0 109.5 45t45.5 109v543h35v-543q0 -79 -55.5 -134.5t-134.5 -55.5h-373q-79 0 -134.5 55.5t-55.5 134.5v543zM462 770h-43l65 109h43z" />
    <glyph glyph-name="Ucircumflex" unicode="&#xdb;" horiz-adv-x="947" 
d="M80 733h35v-543q0 -64 45.5 -109t109.5 -45h373q64 0 109.5 45t45.5 109v543h35v-543q0 -79 -55.5 -134.5t-134.5 -55.5h-373q-79 0 -134.5 55.5t-55.5 134.5v543zM449 880l132 -106h-56l-76 60l-77 -60h-58z" />
    <glyph glyph-name="Udieresis" unicode="&#xdc;" horiz-adv-x="947" 
d="M80 733h35v-543q0 -64 45.5 -109t109.5 -45h373q64 0 109.5 45t45.5 109v543h35v-543q0 -79 -55.5 -134.5t-134.5 -55.5h-373q-79 0 -134.5 55.5t-55.5 134.5v543zM385 772h-36v85h36v-85zM545 772h-36v85h36v-85z" />
    <glyph glyph-name="Yacute" unicode="&#xdd;" horiz-adv-x="887" 
d="M408 279v-279h-36v279q-34 5 -56 25t-51 62l-255 367h43l242 -346q29 -42 47.5 -57.5t47.5 -15.5q30 0 49 15.5t47 56.5l241 347h44l-256 -367q-28 -43 -52 -63q-24 -21 -55 -24zM382 770h-43l65 109h43z" />
    <glyph glyph-name="Thorn" unicode="&#xde;" horiz-adv-x="654" 
d="M374 690q79 0 134.5 -56t55.5 -135v-252q0 -79 -55.5 -134.5t-134.5 -55.5h-258v-150h-36v903h36v-120h258zM529 247v252q0 64 -45.5 109.5t-109.5 45.5h-258v-561h258q64 0 109.5 45t45.5 109z" />
    <glyph glyph-name="agrave" unicode="&#xe0;" horiz-adv-x="890" 
d="M105 0l250 640q12 30 35.5 47.5t52.5 17.5q30 0 53.5 -17.5t34.5 -47.5l150 -382h-410v-36h424l87 -222h38l-255 653q-16 39 -47 63t-75 24q-42 0 -75 -24q-31 -24 -46 -63l-256 -653h39zM476 774h-43l-65 109h43z" />
    <glyph glyph-name="aacute" unicode="&#xe1;" horiz-adv-x="890" 
d="M355 640l-250 -640h-39l256 653q15 39 46 63q33 24 75 24q44 0 75 -24t47 -63l255 -653h-38l-87 222h-424v36h410l-150 382q-11 30 -34.5 47.5t-53.5 17.5q-29 0 -52.5 -17.5t-35.5 -47.5zM415 774h-43l65 109h43z" />
    <glyph glyph-name="acircumflex" unicode="&#xe2;" horiz-adv-x="890" 
d="M355 640l-250 -640h-39l256 653q15 39 46 63q33 24 75 24q44 0 75 -24t47 -63l255 -653h-38l-87 222h-424v36h410l-150 382q-11 30 -34.5 47.5t-53.5 17.5q-29 0 -52.5 -17.5t-35.5 -47.5zM427 881l132 -106h-56l-76 60l-77 -60h-58z" />
    <glyph glyph-name="atilde" unicode="&#xe3;" horiz-adv-x="890" 
d="M355 640l-250 -640h-39l256 653q15 39 46 63q33 24 75 24q44 0 75 -24t47 -63l255 -653h-38l-87 222h-424v36h410l-150 382q-11 30 -34.5 47.5t-53.5 17.5q-29 0 -52.5 -17.5t-35.5 -47.5zM500 775q-43 0 -77 22q-31 21 -72 16q-39 -5 -65 -34l-27 24q36 39 87 45
q52 8 96 -21q35 -20 72 -16q40 6 66 34l26 -24q-36 -39 -87 -45q-6 -1 -19 -1z" />
    <glyph glyph-name="adieresis" unicode="&#xe4;" horiz-adv-x="890" 
d="M355 640l-250 -640h-39l256 653q15 39 46 63q33 24 75 24q44 0 75 -24t47 -63l255 -653h-38l-87 222h-424v36h410l-150 382q-11 30 -34.5 47.5t-53.5 17.5q-29 0 -52.5 -17.5t-35.5 -47.5zM360 773h-36v85h36v-85zM520 773h-36v85h36v-85z" />
    <glyph glyph-name="aring" unicode="&#xe5;" horiz-adv-x="890" 
d="M355 640l-250 -640h-39l256 653q15 39 46 63q33 24 75 24q44 0 75 -24t47 -63l255 -653h-38l-87 222h-424v36h410l-150 382q-11 30 -34.5 47.5t-53.5 17.5q-29 0 -52.5 -17.5t-35.5 -47.5zM423 777q-31 0 -53.5 22.5t-22.5 53.5t22.5 53.5t53.5 22.5t53 -22.5t22 -53.5
t-22 -53.5t-53 -22.5zM423 897q-19 0 -32 -13t-13 -31q0 -19 13 -31.5t32 -12.5q18 0 31 12.5t13 31.5q0 18 -13 31t-31 13z" />
    <glyph glyph-name="ae" unicode="&#xe6;" horiz-adv-x="1413" 
d="M660 609v-226v-29h583v-36h-583v-196q0 -36 25.5 -61.5t61.5 -25.5h543v-36h-543q-50 0 -86 36t-36 87v196h-419l-124 -319h-39l256 653q15 39 46 63q33 24 75 24q44 0 75 -24t42 -50l88 -230v174q0 51 36 87t86 36h543v-35h-543q-36 0 -61.5 -26t-25.5 -62zM332 639
l-112 -285h398l-115 298q-8 21 -31 36.5t-52 15.5t-52.5 -17.5t-35.5 -47.5z" />
    <glyph glyph-name="ccedilla" unicode="&#xe7;" horiz-adv-x="867" 
d="M467 -193h-139v36h136q17 2 28 14t11 28q0 17 -11.5 29.5t-27.5 13.5h-108l25 72h-111q-79 0 -134.5 55.5t-55.5 134.5v353q0 79 55.5 135t134.5 56h499v-36h-499q-64 0 -109.5 -45.5t-45.5 -109.5v-353q0 -64 45.5 -109t109.5 -45h499v-36h-350l-13 -37h61q31 -2 51 -25
q21 -21 21 -53t-21 -53q-19 -22 -51 -25z" />
    <glyph glyph-name="egrave" unicode="&#xe8;" horiz-adv-x="826" 
d="M177 348v36h530v-36h-530zM115 610v-487q0 -36 25.5 -61.5t61.5 -25.5h543v-36h-543q-50 0 -86 36t-36 87v487q0 51 36 87t86 36h543v-35h-543q-36 0 -61.5 -26t-25.5 -62zM467 774h-43l-65 109h43z" />
    <glyph glyph-name="eacute" unicode="&#xe9;" horiz-adv-x="826" 
d="M177 348v36h530v-36h-530zM115 610v-487q0 -36 25.5 -61.5t61.5 -25.5h543v-36h-543q-50 0 -86 36t-36 87v487q0 51 36 87t86 36h543v-35h-543q-36 0 -61.5 -26t-25.5 -62zM402 774h-43l65 109h43z" />
    <glyph glyph-name="ecircumflex" unicode="&#xea;" horiz-adv-x="826" 
d="M177 348v36h530v-36h-530zM115 610v-487q0 -36 25.5 -61.5t61.5 -25.5h543v-36h-543q-50 0 -86 36t-36 87v487q0 51 36 87t86 36h543v-35h-543q-36 0 -61.5 -26t-25.5 -62zM424 879l132 -106h-56l-76 60l-77 -60h-58z" />
    <glyph glyph-name="edieresis" unicode="&#xeb;" horiz-adv-x="826" 
d="M177 348v36h530v-36h-530zM115 610v-487q0 -36 25.5 -61.5t61.5 -25.5h543v-36h-543q-50 0 -86 36t-36 87v487q0 51 36 87t86 36h543v-35h-543q-36 0 -61.5 -26t-25.5 -62zM351 775h-36v85h36v-85zM511 775h-36v85h36v-85z" />
    <glyph glyph-name="igrave" unicode="&#xec;" horiz-adv-x="246" 
d="M91 0h36v733h-36v-733zM164 784h-43l-65 109h43z" />
    <glyph glyph-name="iacute" unicode="&#xed;" horiz-adv-x="246" 
d="M127 0h-36v733h36v-733zM101 774h-43l65 109h43z" />
    <glyph glyph-name="icircumflex" unicode="&#xee;" horiz-adv-x="246" 
d="M127 0h-36v733h36v-733zM113 879l132 -106h-56l-76 60l-77 -60h-58z" />
    <glyph glyph-name="idieresis" unicode="&#xef;" horiz-adv-x="246" 
d="M127 0h-36v733h36v-733zM49 775h-36v85h36v-85zM209 775h-36v85h36v-85z" />
    <glyph glyph-name="ntilde" unicode="&#xf1;" horiz-adv-x="970" 
d="M818 0l-661 688v-687h-36v732h43l659 -687v687h36v-733h-41zM550 767q-43 0 -77 22q-31 21 -72 16q-39 -5 -65 -34l-27 24q36 39 87 45q52 8 96 -21q35 -20 72 -16q40 6 66 34l26 -24q-36 -39 -87 -45q-6 -1 -19 -1z" />
    <glyph glyph-name="ograve" unicode="&#xf2;" horiz-adv-x="989" 
d="M743 0q79 0 134.5 55.5t55.5 134.5v353q0 79 -55.5 135t-134.5 56h-473q-79 0 -134.5 -56t-55.5 -135v-353q0 -79 55.5 -134.5t134.5 -55.5h473zM270 698h473q64 0 109.5 -45.5t45.5 -109.5v-353q0 -64 -45.5 -109t-109.5 -45h-473q-64 0 -109.5 45t-45.5 109v353
q0 64 45.5 109.5t109.5 45.5zM544 774h-43l-65 109h43z" />
    <glyph glyph-name="oacute" unicode="&#xf3;" horiz-adv-x="989" 
d="M743 0h-473q-79 0 -134.5 55.5t-55.5 134.5v353q0 79 55.5 135t134.5 56h473q79 0 134.5 -56t55.5 -135v-353q0 -79 -55.5 -134.5t-134.5 -55.5zM743 698h-473q-64 0 -109.5 -45.5t-45.5 -109.5v-353q0 -64 45.5 -109t109.5 -45h473q64 0 109.5 45t45.5 109v353
q0 64 -45.5 109.5t-109.5 45.5zM483 774h-43l65 109h43z" />
    <glyph glyph-name="ocircumflex" unicode="&#xf4;" horiz-adv-x="989" 
d="M743 0h-473q-79 0 -134.5 55.5t-55.5 134.5v353q0 79 55.5 135t134.5 56h473q79 0 134.5 -56t55.5 -135v-353q0 -79 -55.5 -134.5t-134.5 -55.5zM743 698h-473q-64 0 -109.5 -45.5t-45.5 -109.5v-353q0 -64 45.5 -109t109.5 -45h473q64 0 109.5 45t45.5 109v353
q0 64 -45.5 109.5t-109.5 45.5zM493 881l132 -106h-56l-76 60l-77 -60h-58z" />
    <glyph glyph-name="otilde" unicode="&#xf5;" horiz-adv-x="989" 
d="M743 0h-473q-79 0 -134.5 55.5t-55.5 134.5v353q0 79 55.5 135t134.5 56h473q79 0 134.5 -56t55.5 -135v-353q0 -79 -55.5 -134.5t-134.5 -55.5zM743 698h-473q-64 0 -109.5 -45.5t-45.5 -109.5v-353q0 -64 45.5 -109t109.5 -45h473q64 0 109.5 45t45.5 109v353
q0 64 -45.5 109.5t-109.5 45.5zM558 775q-43 0 -77 22q-31 21 -72 16q-39 -5 -65 -34l-27 24q36 39 87 45q52 8 96 -21q35 -20 72 -16q40 6 66 34l26 -24q-36 -39 -87 -45q-6 -1 -19 -1z" />
    <glyph glyph-name="odieresis" unicode="&#xf6;" horiz-adv-x="989" 
d="M743 0h-473q-79 0 -134.5 55.5t-55.5 134.5v353q0 79 55.5 135t134.5 56h473q79 0 134.5 -56t55.5 -135v-353q0 -79 -55.5 -134.5t-134.5 -55.5zM743 698h-473q-64 0 -109.5 -45.5t-45.5 -109.5v-353q0 -64 45.5 -109t109.5 -45h473q64 0 109.5 45t45.5 109v353
q0 64 -45.5 109.5t-109.5 45.5zM423 775h-36v85h36v-85zM583 775h-36v85h36v-85z" />
    <glyph glyph-name="oslash" unicode="&#xf8;" horiz-adv-x="989" 
d="M743 0h-473q-79 0 -134.5 55.5t-55.5 134.5v353q0 79 55.5 135t134.5 56h473q79 0 134.5 -56t55.5 -135v-353q0 -79 -55.5 -134.5t-134.5 -55.5zM743 698h-473q-64 0 -109.5 -45.5t-45.5 -109.5v-353q0 -64 45.5 -109t109.5 -45h473q64 0 109.5 45t45.5 109v353
q0 64 -45.5 109.5t-109.5 45.5zM301 0h-43l430 733h43z" />
    <glyph glyph-name="ugrave" unicode="&#xf9;" horiz-adv-x="947" 
d="M115 733h-35v-543q0 -79 55.5 -134.5t134.5 -55.5h373q79 0 134.5 55.5t55.5 134.5v543h-35v-543q0 -64 -45.5 -109t-109.5 -45h-373q-64 0 -109.5 45t-45.5 109v543zM506 775h-43l-65 109h43z" />
    <glyph glyph-name="uacute" unicode="&#xfa;" horiz-adv-x="947" 
d="M80 733h35v-543q0 -64 45.5 -109t109.5 -45h373q64 0 109.5 45t45.5 109v543h35v-543q0 -79 -55.5 -134.5t-134.5 -55.5h-373q-79 0 -134.5 55.5t-55.5 134.5v543zM461 774h-43l65 109h43z" />
    <glyph glyph-name="ucircumflex" unicode="&#xfb;" horiz-adv-x="947" 
d="M80 733h35v-543q0 -64 45.5 -109t109.5 -45h373q64 0 109.5 45t45.5 109v543h35v-543q0 -79 -55.5 -134.5t-134.5 -55.5h-373q-79 0 -134.5 55.5t-55.5 134.5v543zM471 879l132 -106h-56l-76 60l-77 -60h-58z" />
    <glyph glyph-name="udieresis" unicode="&#xfc;" horiz-adv-x="947" 
d="M80 733h35v-543q0 -64 45.5 -109t109.5 -45h373q64 0 109.5 45t45.5 109v543h35v-543q0 -79 -55.5 -134.5t-134.5 -55.5h-373q-79 0 -134.5 55.5t-55.5 134.5v543zM401 735h-36v85h36v-85zM561 735h-36v85h36v-85z" />
    <glyph glyph-name="yacute" unicode="&#xfd;" horiz-adv-x="830" 
d="M390 278q-29 0 -53 13.5t-37 28.5t-35 46l-255 367h43l242 -346q29 -42 47.5 -57.5t47.5 -15.5q30 0 49 15.5t47 56.5l241 347h44l-256 -367q-28 -43 -52 -63q-29 -25 -73 -25zM408 0h-36v257h36v-257zM382 751h-43l65 109h43z" />
    <glyph glyph-name="thorn" unicode="&#xfe;" horiz-adv-x="656" 
d="M374 690q79 0 134.5 -56t55.5 -135v-252q0 -79 -55.5 -134.5t-134.5 -55.5h-258v-150h-36v903h36v-120h258zM529 247v252q0 64 -45.5 109.5t-109.5 45.5h-258v-561h258q64 0 109.5 45t45.5 109z" />
    <glyph glyph-name="ydieresis" unicode="&#xff;" horiz-adv-x="887" 
d="M390 278q-29 0 -53 13.5t-37 28.5t-35 46l-255 367h43l242 -346q29 -42 47.5 -57.5t47.5 -15.5q30 0 49 15.5t47 56.5l241 347h44l-256 -367q-28 -43 -52 -63q-29 -25 -73 -25zM408 0h-36v257h36v-257zM327 775h-36v85h36v-85zM487 775h-36v85h36v-85z" />
    <glyph glyph-name="Amacron" unicode="&#x100;" horiz-adv-x="890" 
d="M171 222l-86 -222h-39l256 653q15 39 46 63q33 24 75 24q43 0 75 -24q31 -24 47 -63l255 -653h-38l-87 222h-504zM423 705q-29 0 -52.5 -17.5t-35.5 -47.5l-150 -382h476l-150 382q-11 30 -34.5 47.5t-53.5 17.5zM262 807v36h324v-36h-324z" />
    <glyph glyph-name="amacron" unicode="&#x101;" horiz-adv-x="890" 
d="M355 640l-250 -640h-39l256 653q15 39 46 63q33 24 75 24q44 0 75 -24t47 -63l255 -653h-38l-87 222h-424v36h410l-150 382q-11 30 -34.5 47.5t-53.5 17.5q-29 0 -52.5 -17.5t-35.5 -47.5zM288 808v36h324v-36h-324z" />
    <glyph glyph-name="Abreve" unicode="&#x102;" horiz-adv-x="890" 
d="M171 222l-86 -222h-39l256 653q15 39 46 63q33 24 75 24q43 0 75 -24q31 -24 47 -63l255 -653h-38l-87 222h-504zM423 705q-29 0 -52.5 -17.5t-35.5 -47.5l-150 -382h476l-150 382q-11 30 -34.5 47.5t-53.5 17.5zM483 808h-119q-33 0 -61.5 16.5t-45.5 45.5l31 18
q24 -44 76 -44h119q50 0 76 44l31 -18q-17 -29 -45.5 -45.5t-61.5 -16.5z" />
    <glyph glyph-name="abreve" unicode="&#x103;" horiz-adv-x="890" 
d="M355 640l-250 -640h-39l256 653q15 39 46 63q33 24 75 24q44 0 75 -24t47 -63l255 -653h-38l-87 222h-424v36h410l-150 382q-11 30 -34.5 47.5t-53.5 17.5q-29 0 -52.5 -17.5t-35.5 -47.5zM505 808h-119q-33 0 -61.5 16.5t-45.5 45.5l31 18q24 -44 76 -44h119q50 0 76 44
l31 -18q-17 -29 -45.5 -45.5t-61.5 -16.5z" />
    <glyph glyph-name="Aogonek" unicode="&#x104;" horiz-adv-x="890" 
d="M826 -157v-36h-54q-50 0 -73 38q-19 34 4 74l54 94l-82 209h-504l-86 -222h-39l256 653q15 39 46 63q33 24 75 24q43 0 75 -24q31 -24 47 -63l255 -653h-9l-56 -99q-14 -23 -5 -38q12 -20 42 -20h54zM423 705q-29 0 -52.5 -17.5t-35.5 -47.5l-150 -382h476l-150 382
q-11 30 -34.5 47.5t-53.5 17.5z" />
    <glyph glyph-name="aogonek" unicode="&#x105;" horiz-adv-x="890" 
d="M825 -157v-36h-54q-50 0 -73 38q-8 16 -8 32q0 21 12 42l66 115l-73 188h-424v36h410l-150 382q-11 30 -34.5 47.5t-53.5 17.5q-29 0 -52.5 -17.5t-35.5 -47.5l-250 -640h-39l256 653q15 39 46 63q33 24 75 24q44 0 75 -24t47 -63l255 -653h-30l-56 -99q-8 -12 -8 -25
q0 -7 3 -13q12 -20 42 -20h54z" />
    <glyph glyph-name="Cacute" unicode="&#x106;" horiz-adv-x="867" 
d="M769 734v-36h-499q-64 0 -109.5 -45.5t-45.5 -109.5v-353q0 -64 45.5 -109t109.5 -45h499v-36h-499q-79 0 -134.5 55.5t-55.5 134.5v353q0 79 55.5 135t134.5 56h499zM444 770h-43l65 109h43z" />
    <glyph glyph-name="cacute" unicode="&#x107;" horiz-adv-x="867" 
d="M769 734v-36h-499q-64 0 -109.5 -45.5t-45.5 -109.5v-353q0 -64 45.5 -109t109.5 -45h499v-36h-499q-79 0 -134.5 55.5t-55.5 134.5v353q0 79 55.5 135t134.5 56h499zM446 772h-43l65 109h43z" />
    <glyph glyph-name="Ccircumflex" unicode="&#x108;" horiz-adv-x="867" 
d="M769 734v-36h-499q-64 0 -109.5 -45.5t-45.5 -109.5v-353q0 -64 45.5 -109t109.5 -45h499v-36h-499q-79 0 -134.5 55.5t-55.5 134.5v353q0 79 55.5 135t134.5 56h499zM463 879l132 -106h-56l-76 60l-77 -60h-58z" />
    <glyph glyph-name="ccircumflex" unicode="&#x109;" horiz-adv-x="867" 
d="M769 734v-36h-499q-64 0 -109.5 -45.5t-45.5 -109.5v-353q0 -64 45.5 -109t109.5 -45h499v-36h-499q-79 0 -134.5 55.5t-55.5 134.5v353q0 79 55.5 135t134.5 56h499zM462 877l132 -106h-56l-76 60l-77 -60h-58z" />
    <glyph glyph-name="Cdotaccent" unicode="&#x10a;" horiz-adv-x="867" 
d="M769 734v-36h-499q-64 0 -109.5 -45.5t-45.5 -109.5v-353q0 -64 45.5 -109t109.5 -45h499v-36h-499q-79 0 -134.5 55.5t-55.5 134.5v353q0 79 55.5 135t134.5 56h499zM471 792h-36v85h36v-85z" />
    <glyph glyph-name="cdotaccent" unicode="&#x10b;" horiz-adv-x="867" 
d="M769 734v-36h-499q-64 0 -109.5 -45.5t-45.5 -109.5v-353q0 -64 45.5 -109t109.5 -45h499v-36h-499q-79 0 -134.5 55.5t-55.5 134.5v353q0 79 55.5 135t134.5 56h499zM481 793h-36v85h36v-85z" />
    <glyph glyph-name="Ccaron" unicode="&#x10c;" horiz-adv-x="867" 
d="M769 734v-36h-499q-64 0 -109.5 -45.5t-45.5 -109.5v-353q0 -64 45.5 -109t109.5 -45h499v-36h-499q-79 0 -134.5 55.5t-55.5 134.5v353q0 79 55.5 135t134.5 56h499zM432 769l-132 105l22 28l110 -87l113 88l22 -29z" />
    <glyph glyph-name="ccaron" unicode="&#x10d;" horiz-adv-x="867" 
d="M769 734v-36h-499q-64 0 -109.5 -45.5t-45.5 -109.5v-353q0 -64 45.5 -109t109.5 -45h499v-36h-499q-79 0 -134.5 55.5t-55.5 134.5v353q0 79 55.5 135t134.5 56h499zM452 765l-132 105l22 28l110 -87l113 88l22 -29z" />
    <glyph glyph-name="Dcaron" unicode="&#x10e;" horiz-adv-x="1004" 
d="M673 0h-593v733h593q79 0 134.5 -56t55.5 -135v-352q0 -79 -55.5 -134.5t-134.5 -55.5zM115 36h558q64 0 109.5 45t45.5 109v352q0 64 -45.5 109.5t-109.5 45.5h-558v-661zM420 769l-132 105l22 28l110 -87l113 88l22 -29z" />
    <glyph glyph-name="dcaron" unicode="&#x10f;" horiz-adv-x="1155" 
d="M115 0h-35v733h583q79 0 134.5 -56t55.5 -135v-352q0 -79 -55.5 -134.5t-134.5 -55.5h-486v36h486q64 0 109.5 45t45.5 109v352q0 64 -45.5 109.5t-109.5 45.5h-548v-697zM392 767l37 109h38l-37 -109h-38z" />
    <glyph glyph-name="Dcroat" unicode="&#x110;" horiz-adv-x="978" 
d="M673 0h-593v733h593q79 0 134.5 -56t55.5 -135v-352q0 -79 -55.5 -134.5t-134.5 -55.5zM115 36h558q64 0 109.5 45t45.5 109v352q0 64 -45.5 109.5t-109.5 45.5h-558v-661zM305 808v36h324v-36h-324z" />
    <glyph glyph-name="Emacron" unicode="&#x112;" horiz-adv-x="826" 
d="M80 123v487q0 51 36 87t86 36h543v-35h-543q-36 0 -61.5 -26t-25.5 -62v-226h592v-36h-592v-225q0 -36 25.5 -61.5t61.5 -25.5h543v-36h-543q-50 0 -86 36t-36 87zM251 808v36h324v-36h-324z" />
    <glyph glyph-name="emacron" unicode="&#x113;" horiz-adv-x="826" 
d="M177 348v36h530v-36h-530zM115 610v-487q0 -36 25.5 -61.5t61.5 -25.5h543v-36h-543q-50 0 -86 36t-36 87v487q0 51 36 87t86 36h543v-35h-543q-36 0 -61.5 -26t-25.5 -62zM255 807v36h324v-36h-324z" />
    <glyph glyph-name="Ebreve" unicode="&#x114;" horiz-adv-x="838" 
d="M80 123v487q0 51 36 87t86 36h543v-35h-543q-36 0 -61.5 -26t-25.5 -62v-226h592v-36h-592v-225q0 -36 25.5 -61.5t61.5 -25.5h543v-36h-543q-50 0 -86 36t-36 87zM478 807h-119q-33 0 -61.5 16.5t-45.5 45.5l31 18q24 -44 76 -44h119q50 0 76 44l31 -18
q-17 -29 -45.5 -45.5t-61.5 -16.5z" />
    <glyph glyph-name="ebreve" unicode="&#x115;" horiz-adv-x="826" 
d="M177 348v36h530v-36h-530zM115 610v-487q0 -36 25.5 -61.5t61.5 -25.5h543v-36h-543q-50 0 -86 36t-36 87v487q0 51 36 87t86 36h543v-35h-543q-36 0 -61.5 -26t-25.5 -62zM474 808h-119q-33 0 -61.5 16.5t-45.5 45.5l31 18q24 -44 76 -44h119q50 0 76 44l31 -18
q-17 -29 -45.5 -45.5t-61.5 -16.5z" />
    <glyph glyph-name="Edotaccent" unicode="&#x116;" horiz-adv-x="826" 
d="M80 123v487q0 51 36 87t86 36h543v-35h-543q-36 0 -61.5 -26t-25.5 -62v-226h592v-36h-592v-225q0 -36 25.5 -61.5t61.5 -25.5h543v-36h-543q-50 0 -86 36t-36 87z" />
    <glyph glyph-name="edotaccent" unicode="&#x117;" horiz-adv-x="826" 
d="M177 348v36h530v-36h-530zM115 610v-487q0 -36 25.5 -61.5t61.5 -25.5h543v-36h-543q-50 0 -86 36t-36 87v487q0 51 36 87t86 36h543v-35h-543q-36 0 -61.5 -26t-25.5 -62zM431 809h-36v85h36v-85z" />
    <glyph glyph-name="Eogonek" unicode="&#x118;" horiz-adv-x="879" 
d="M745 0h-5l-56 -99q-14 -23 -5 -38q12 -20 42 -20h54v-36h-54q-50 0 -73 38q-19 34 4 74l46 81h-496q-50 0 -86 36t-36 87v487q0 51 36 87t86 36h543v-35h-543q-36 0 -61.5 -26t-25.5 -62v-226h592v-36h-592v-225q0 -36 25.5 -61.5t61.5 -25.5h543v-36z" />
    <glyph glyph-name="eogonek" unicode="&#x119;" horiz-adv-x="826" 
d="M176 348v36h530v-36h-530zM744 36v-36l-56 -99q-14 -23 -5 -38q12 -20 42 -20h54v-36h-54q-50 0 -73 38q-19 34 4 74l46 81h-501q-50 0 -86 36t-36 87v487q0 51 36 87t86 36h543v-35h-543q-36 0 -61.5 -26t-25.5 -62v-487q0 -36 25.5 -61.5t61.5 -25.5h543z" />
    <glyph glyph-name="Ecaron" unicode="&#x11a;" horiz-adv-x="826" 
d="M80 123v487q0 51 36 87t86 36h543v-35h-543q-36 0 -61.5 -26t-25.5 -62v-226h592v-36h-592v-225q0 -36 25.5 -61.5t61.5 -25.5h543v-36h-543q-50 0 -86 36t-36 87zM412 769l-132 105l22 28l110 -87l113 88l22 -29z" />
    <glyph glyph-name="ecaron" unicode="&#x11b;" horiz-adv-x="826" 
d="M177 348v36h530v-36h-530zM115 610v-487q0 -36 25.5 -61.5t61.5 -25.5h543v-36h-543q-50 0 -86 36t-36 87v487q0 51 36 87t86 36h543v-35h-543q-36 0 -61.5 -26t-25.5 -62zM416 773l-132 105l22 28l110 -87l113 88l22 -29z" />
    <glyph glyph-name="Gcircumflex" unicode="&#x11c;" horiz-adv-x="926" 
d="M802 0h-533q-78 0 -133.5 55.5t-55.5 134.5v351q0 78 55 135t134 57h529v-36h-529q-64 0 -109 -45.5t-45 -110.5v-351q0 -64 45 -109t109 -45h498v311h-306v36h341v-383zM463 878l132 -106h-56l-76 60l-77 -60h-58z" />
    <glyph glyph-name="gcircumflex" unicode="&#x11d;" horiz-adv-x="926" 
d="M802 0h-533q-78 0 -133.5 55.5t-55.5 134.5v351q0 78 55 135t134 57h529v-36h-529q-64 0 -109 -45.5t-45 -110.5v-351q0 -64 45 -109t109 -45h498v311h-306v36h341v-383zM460 876l132 -106h-56l-76 60l-77 -60h-58z" />
    <glyph glyph-name="Gbreve" unicode="&#x11e;" horiz-adv-x="926" 
d="M802 0h-533q-78 0 -133.5 55.5t-55.5 134.5v351q0 78 55 135t134 57h529v-36h-529q-64 0 -109 -45.5t-45 -110.5v-351q0 -64 45 -109t109 -45h498v311h-306v36h341v-383zM512 798h-119q-33 0 -61.5 16.5t-45.5 45.5l31 18q24 -44 76 -44h119q50 0 76 44l31 -18
q-17 -29 -45.5 -45.5t-61.5 -16.5z" />
    <glyph glyph-name="gbreve" unicode="&#x11f;" horiz-adv-x="926" 
d="M802 0h-533q-78 0 -133.5 55.5t-55.5 134.5v351q0 78 55 135t134 57h529v-36h-529q-64 0 -109 -45.5t-45 -110.5v-351q0 -64 45 -109t109 -45h498v311h-306v36h341v-383zM521 810h-119q-33 0 -61.5 16.5t-45.5 45.5l31 18q24 -44 76 -44h119q50 0 76 44l31 -18
q-17 -29 -45.5 -45.5t-61.5 -16.5z" />
    <glyph glyph-name="Gdotaccent" unicode="&#x120;" horiz-adv-x="926" 
d="M802 0h-533q-78 0 -133.5 55.5t-55.5 134.5v351q0 78 55 135t134 57h529v-36h-529q-64 0 -109 -45.5t-45 -110.5v-351q0 -64 45 -109t109 -45h498v311h-306v36h341v-383zM481 797h-36v85h36v-85z" />
    <glyph glyph-name="gdotaccent" unicode="&#x121;" horiz-adv-x="926" 
d="M802 0h-533q-78 0 -133.5 55.5t-55.5 134.5v351q0 78 55 135t134 57h529v-36h-529q-64 0 -109 -45.5t-45 -110.5v-351q0 -64 45 -109t109 -45h498v311h-306v36h341v-383zM481 801h-36v85h36v-85z" />
    <glyph glyph-name="Gcommaaccent" unicode="&#x122;" horiz-adv-x="926" 
d="M802 0h-533q-78 0 -133.5 55.5t-55.5 134.5v351q0 78 55 135t134 57h529v-36h-529q-64 0 -109 -45.5t-45 -110.5v-351q0 -64 45 -109t109 -45h498v311h-306v36h341v-383zM424 -145l37 109h38l-37 -109h-38z" />
    <glyph glyph-name="gcommaaccent" unicode="&#x123;" horiz-adv-x="926" 
d="M802 0v383h-341v-36h306v-311h-498q-64 0 -109 45t-45 109v351q0 65 45 110.5t109 45.5h529v36h-529q-79 0 -134 -57t-55 -135v-351q0 -79 55.5 -134.5t133.5 -55.5h533zM500 774h-38l-37 109h38z" />
    <glyph glyph-name="Hcircumflex" unicode="&#x124;" horiz-adv-x="920" 
d="M799 0h-36v348h-644v-348h-36v733h36v-349h644v349h36v-733zM433 877l132 -106h-56l-76 60l-77 -60h-58z" />
    <glyph glyph-name="hcircumflex" unicode="&#x125;" horiz-adv-x="937" 
d="M816 0h-36v348h-603v36h603v349h36v-733zM116 0h-36v733h36v-733zM434 874l132 -106h-56l-76 60l-77 -60h-58z" />
    <glyph glyph-name="Itilde" unicode="&#x128;" horiz-adv-x="246" 
d="M127 0h-36v733h36v-733zM191 791q-43 0 -77 22q-31 21 -72 16q-39 -5 -65 -34l-27 24q36 39 87 45q52 8 96 -21q35 -20 72 -16q40 6 66 34l26 -24q-36 -39 -87 -45q-6 -1 -19 -1z" />
    <glyph glyph-name="itilde" unicode="&#x129;" horiz-adv-x="246" 
d="M127 0h-36v733h36v-733zM191 786q-43 0 -77 22q-31 21 -72 16q-39 -5 -65 -34l-27 24q36 39 87 45q52 8 96 -21q35 -20 72 -16q40 6 66 34l26 -24q-36 -39 -87 -45q-6 -1 -19 -1z" />
    <glyph glyph-name="uni012A" unicode="&#x12a;" horiz-adv-x="246" 
d="M127 0h-36v733h36v-733zM-53 809v36h324v-36h-324z" />
    <glyph glyph-name="imacron" unicode="&#x12b;" horiz-adv-x="246" 
d="M127 0h-36v733h36v-733zM-53 809v36h324v-36h-324z" />
    <glyph glyph-name="Ibreve" unicode="&#x12c;" horiz-adv-x="246" 
d="M127 0h-36v733h36v-733zM169 809h-119q-33 0 -61.5 16.5t-45.5 45.5l31 18q24 -44 76 -44h119q50 0 76 44l31 -18q-17 -29 -45.5 -45.5t-61.5 -16.5z" />
    <glyph glyph-name="uni012D" unicode="&#x12d;" horiz-adv-x="246" 
d="M127 0h-36v733h36v-733zM168 809h-119q-33 0 -61.5 16.5t-45.5 45.5l31 18q24 -44 76 -44h119q50 0 76 44l31 -18q-17 -29 -45.5 -45.5t-61.5 -16.5z" />
    <glyph glyph-name="Iogonek" unicode="&#x12e;" horiz-adv-x="246" 
d="M156 -157v-36h-54q-50 0 -73 38q-19 34 4 74l58 101v713h36v-733h-6l-56 -99q-14 -23 -5 -38q12 -20 42 -20h54z" />
    <glyph glyph-name="iogonek" unicode="&#x12f;" horiz-adv-x="246" 
d="M156 -157v-36h-54q-50 0 -73 38q-19 34 4 74l58 101v713h36v-733h-6l-56 -99q-14 -23 -5 -38q12 -20 42 -20h54z" />
    <glyph glyph-name="Idotaccent" unicode="&#x130;" horiz-adv-x="289" 
d="M139 0h-36v733h36v-733zM139 787h-36v85h36v-85z" />
    <glyph glyph-name="dotlessi" unicode="&#x131;" horiz-adv-x="246" 
d="M127 0h-36v733h36v-733z" />
    <glyph glyph-name="Jcircumflex" unicode="&#x134;" horiz-adv-x="601" 
d="M448 733h35v-543q0 -79 -55.5 -134.5t-134.5 -55.5h-233v36h233q64 0 109.5 45t45.5 109v543zM462 879l132 -106h-56l-76 60l-77 -60h-58z" />
    <glyph glyph-name="jcircumflex" unicode="&#x135;" horiz-adv-x="601" 
d="M448 733h35v-543q0 -79 -55.5 -134.5t-134.5 -55.5h-233v36h233q64 0 109.5 45t45.5 109v543zM464 878l132 -106h-56l-76 60l-77 -60h-58z" />
    <glyph glyph-name="Kcommaaccent" unicode="&#x136;" horiz-adv-x="927" 
d="M590 359q22 -17 52 -63l206 -296h-43l-192 276q-28 41 -47 56.5t-49 15.5h-401v-348h-35v733h35v-349h401q30 0 49 15.5t47 57.5l192 276h44l-207 -296q-30 -46 -52 -64q-2 -1 -5 -3.5t-4 -3.5q6 -4 9 -7zM358 -145h38l37 109h-38z" />
    <glyph glyph-name="kcommaaccent" unicode="&#x137;" horiz-adv-x="927" 
d="M115 733v-733h-35v733h35zM177 348v36h339q30 0 49 15.5t47 57.5l192 276h44l-207 -296q-30 -46 -52 -64q-2 -1 -5 -3.5t-4 -3.5q6 -4 9 -7q22 -17 52 -63l206 -296h-43l-192 276q-28 41 -47 56.5t-49 15.5h-339zM371 -145h38l37 109h-38z" />
    <glyph glyph-name="Lacute" unicode="&#x139;" horiz-adv-x="734" 
d="M652 0h-470q-42 0 -72 30t-30 71v632h36v-632q0 -27 19.5 -46t46.5 -19h470v-36zM86 773h-43l65 109h43z" />
    <glyph glyph-name="lacute" unicode="&#x13a;" horiz-adv-x="734" 
d="M652 0h-470q-42 0 -72 30t-30 71v632h36v-632q0 -27 19.5 -46t46.5 -19h470v-36zM356 604h-43l65 109h43z" />
    <glyph glyph-name="Lcommaaccent" unicode="&#x13b;" horiz-adv-x="734" 
d="M652 0h-470q-42 0 -72 30t-30 71v632h36v-632q0 -27 19.5 -46t46.5 -19h470v-36zM344 -145l37 109h38l-37 -109h-38z" />
    <glyph glyph-name="lcommaaccent" unicode="&#x13c;" horiz-adv-x="734" 
d="M652 0h-470q-42 0 -72 30t-30 71v632h36v-632q0 -27 19.5 -46t46.5 -19h470v-36z" />
    <glyph glyph-name="Lcaron" unicode="&#x13d;" horiz-adv-x="734" 
d="M652 0h-470q-42 0 -72 30t-30 71v632h36v-632q0 -27 19.5 -46t46.5 -19h470v-36zM97 773l-132 105l22 28l110 -87l113 88l22 -29z" />
    <glyph glyph-name="lcaron" unicode="&#x13e;" horiz-adv-x="775" 
d="M652 0h-470q-42 0 -72 30t-30 71v632h36v-632q0 -27 19.5 -46t46.5 -19h470v-36zM401 618l37 109h38l-37 -109h-38z" />
    <glyph glyph-name="Ldot" unicode="&#x13f;" horiz-adv-x="734" 
d="M652 0h-470q-42 0 -72 30t-30 71v632h36v-632q0 -27 19.5 -46t46.5 -19h470v-36zM385 387h-36v85h36v-85z" />
    <glyph glyph-name="ldot" unicode="&#x140;" horiz-adv-x="889" 
d="M652 0h-470q-42 0 -72 30t-30 71v632h36v-632q0 -27 19.5 -46t46.5 -19h470v-36zM375 384h-36v85h36v-85z" />
    <glyph glyph-name="Lslash" unicode="&#x141;" horiz-adv-x="734" 
d="M652 36v-36h-470q-42 0 -72 30t-30 71v171l-67 -89h-43l110 148v402h36v-354l124 167h46l-170 -226v-219q0 -27 19.5 -46t46.5 -19h470z" />
    <glyph glyph-name="lslash" unicode="&#x142;" horiz-adv-x="734" 
d="M652 36v-36h-470q-42 0 -72 30t-30 71v170l-67 -88h-43l110 148v402h36v-354l124 167v-64l-124 -163v-218q0 -27 19.5 -46t46.5 -19h470z" />
    <glyph glyph-name="Nacute" unicode="&#x143;" horiz-adv-x="970" 
d="M116 662v-662h-36v662q0 27 13 44q10 16 32 23q23 8 46 -1q24 -8 38 -30l526 -646v-1q19 -26 45 -18q20 6 20 34v666h36v-666q0 -25 -13 -44q-13 -18 -32 -24q-25 -7 -46 2q-24 8 -39 29l-525 647h-1q-18 27 -44 18q-20 -6 -20 -33zM474 810h-43l65 109h43z" />
    <glyph glyph-name="nacute" unicode="&#x144;" horiz-adv-x="970" 
d="M818 0l-661 688v-687h-36v732h43l659 -687v687h36v-733h-41zM488 734h-43l65 109h43z" />
    <glyph glyph-name="Ncommaaccent" unicode="&#x145;" horiz-adv-x="976" 
d="M116 662v-662h-36v662q0 27 13 44q10 16 32 23q23 8 46 -1q24 -8 38 -30l526 -646v-1q19 -26 45 -18q20 6 20 34v666h36v-666q0 -25 -13 -44q-13 -18 -32 -24q-25 -7 -46 2q-24 8 -39 29l-525 647h-1q-18 27 -44 18q-20 -6 -20 -33zM435 -145l37 109h38l-37 -109h-38z
" />
    <glyph glyph-name="ncommaaccent" unicode="&#x146;" horiz-adv-x="970" 
d="M818 0l-661 688v-687h-36v732h43l659 -687v687h36v-733h-41z" />
    <glyph glyph-name="Ncaron" unicode="&#x147;" horiz-adv-x="970" 
d="M116 662v-662h-36v662q0 27 13 44q10 16 32 23q23 8 46 -1q24 -8 38 -30l526 -646v-1q19 -26 45 -18q20 6 20 34v666h36v-666q0 -25 -13 -44q-13 -18 -32 -24q-25 -7 -46 2q-24 8 -39 29l-525 647h-1q-18 27 -44 18q-20 -6 -20 -33zM483 769l-132 105l22 28l110 -87
l113 88l22 -29z" />
    <glyph glyph-name="ncaron" unicode="&#x148;" horiz-adv-x="970" 
d="M818 0l-661 688v-687h-36v732h43l659 -687v687h36v-733h-41zM499 754l-132 105l22 28l110 -87l113 88l22 -29z" />
    <glyph glyph-name="napostrophe" unicode="&#x149;" horiz-adv-x="989" 
d="M818 0l-661 688v-687h-36v732h43l659 -687v687h36v-733h-41zM124 773l37 109h38l-37 -109h-38z" />
    <glyph glyph-name="Omacron" unicode="&#x14c;" horiz-adv-x="989" 
d="M743 0h-473q-79 0 -134.5 55.5t-55.5 134.5v353q0 79 55.5 135t134.5 56h473q79 0 134.5 -56t55.5 -135v-353q0 -79 -55.5 -134.5t-134.5 -55.5zM743 698h-473q-64 0 -109.5 -45.5t-45.5 -109.5v-353q0 -64 45.5 -109t109.5 -45h473q64 0 109.5 45t45.5 109v353
q0 64 -45.5 109.5t-109.5 45.5zM334 811v36h324v-36h-324z" />
    <glyph glyph-name="omacron" unicode="&#x14d;" horiz-adv-x="989" 
d="M743 0h-473q-79 0 -134.5 55.5t-55.5 134.5v353q0 79 55.5 135t134.5 56h473q79 0 134.5 -56t55.5 -135v-353q0 -79 -55.5 -134.5t-134.5 -55.5zM743 698h-473q-64 0 -109.5 -45.5t-45.5 -109.5v-353q0 -64 45.5 -109t109.5 -45h473q64 0 109.5 45t45.5 109v353
q0 64 -45.5 109.5t-109.5 45.5zM332 809v36h324v-36h-324z" />
    <glyph glyph-name="Obreve" unicode="&#x14e;" horiz-adv-x="1082" 
d="M743 0h-473q-79 0 -134.5 55.5t-55.5 134.5v353q0 79 55.5 135t134.5 56h473q79 0 134.5 -56t55.5 -135v-353q0 -79 -55.5 -134.5t-134.5 -55.5zM743 698h-473q-64 0 -109.5 -45.5t-45.5 -109.5v-353q0 -64 45.5 -109t109.5 -45h473q64 0 109.5 45t45.5 109v353
q0 64 -45.5 109.5t-109.5 45.5zM560 809h-119q-33 0 -61.5 16.5t-45.5 45.5l31 18q24 -44 76 -44h119q50 0 76 44l31 -18q-17 -29 -45.5 -45.5t-61.5 -16.5z" />
    <glyph glyph-name="obreve" unicode="&#x14f;" horiz-adv-x="1057" 
d="M743 0h-473q-79 0 -134.5 55.5t-55.5 134.5v353q0 79 55.5 135t134.5 56h473q79 0 134.5 -56t55.5 -135v-353q0 -79 -55.5 -134.5t-134.5 -55.5zM743 698h-473q-64 0 -109.5 -45.5t-45.5 -109.5v-353q0 -64 45.5 -109t109.5 -45h473q64 0 109.5 45t45.5 109v353
q0 64 -45.5 109.5t-109.5 45.5zM562 810h-119q-33 0 -61.5 16.5t-45.5 45.5l31 18q24 -44 76 -44h119q50 0 76 44l31 -18q-17 -29 -45.5 -45.5t-61.5 -16.5z" />
    <glyph glyph-name="Ohungarumlaut" unicode="&#x150;" horiz-adv-x="1055" 
d="M743 0h-473q-79 0 -134.5 55.5t-55.5 134.5v353q0 79 55.5 135t134.5 56h473q79 0 134.5 -56t55.5 -135v-353q0 -79 -55.5 -134.5t-134.5 -55.5zM743 698h-473q-64 0 -109.5 -45.5t-45.5 -109.5v-353q0 -64 45.5 -109t109.5 -45h473q64 0 109.5 45t45.5 109v353
q0 64 -45.5 109.5t-109.5 45.5zM454 774h-43l65 109h43zM557 774h-43l65 109h43z" />
    <glyph glyph-name="ohungarumlaut" unicode="&#x151;" horiz-adv-x="989" 
d="M743 0h-473q-79 0 -134.5 55.5t-55.5 134.5v353q0 79 55.5 135t134.5 56h473q79 0 134.5 -56t55.5 -135v-353q0 -79 -55.5 -134.5t-134.5 -55.5zM743 698h-473q-64 0 -109.5 -45.5t-45.5 -109.5v-353q0 -64 45.5 -109t109.5 -45h473q64 0 109.5 45t45.5 109v353
q0 64 -45.5 109.5t-109.5 45.5zM426 774h-43l65 109h43zM529 774h-43l65 109h43z" />
    <glyph glyph-name="OE" unicode="&#x152;" horiz-adv-x="1588" 
d="M864 610v-67v-159h572v-36h-572v-158v-67q0 -36 25.5 -61.5t61.5 -25.5h523v-36h-523q-41 0 -73.5 24.5t-43.5 63.5q-26 -40 -68.5 -64t-91.5 -24h-403q-79 0 -134.5 55.5t-55.5 134.5v353q0 79 55.5 135t134.5 56h403q49 0 91.5 -24t68.5 -64q11 38 43.5 62.5t73.5 24.5
h523v-35h-523q-36 0 -61.5 -26t-25.5 -62zM674 36q64 0 109.5 45t45.5 109v353q0 64 -45.5 109.5t-109.5 45.5h-403q-64 0 -109.5 -45.5t-45.5 -109.5v-353q0 -64 45.5 -109t109.5 -45h403z" />
    <glyph glyph-name="oe" unicode="&#x153;" horiz-adv-x="1588" 
d="M864 610v-67v-159h572v-36h-572v-158v-67q0 -36 25.5 -61.5t61.5 -25.5h523v-36h-523q-41 0 -73.5 24.5t-43.5 63.5q-26 -40 -68.5 -64t-91.5 -24h-403q-79 0 -134.5 55.5t-55.5 134.5v353q0 79 55.5 135t134.5 56h403q49 0 91.5 -24t68.5 -64q11 38 43.5 62.5t73.5 24.5
h523v-35h-523q-36 0 -61.5 -26t-25.5 -62zM674 36q64 0 109.5 45t45.5 109v353q0 64 -45.5 109.5t-109.5 45.5h-403q-64 0 -109.5 -45.5t-45.5 -109.5v-353q0 -64 45.5 -109t109.5 -45h403z" />
    <glyph glyph-name="Racute" unicode="&#x154;" horiz-adv-x="939" 
d="M819 0h-45l-213 282h-444v-281h-36v733h582q52 0 88.5 -37t36.5 -89v-201q0 -52 -36.5 -88.5t-88.5 -36.5h-57zM117 698v-380h546q37 0 63.5 26t26.5 63v201q0 38 -26.5 64t-63.5 26h-546zM414 770h-43l65 109h43z" />
    <glyph glyph-name="racute" unicode="&#x155;" horiz-adv-x="922" 
d="M116 698v-697h-36v733h559q52 0 88.5 -37t36.5 -89v-201q0 -52 -36.5 -88.5t-88.5 -36.5h-57l213 -282h-45l-213 282h-360v36h462q37 0 63.5 26t26.5 63v201q0 38 -26.5 64t-63.5 26h-523zM380 774h-43l65 109h43z" />
    <glyph glyph-name="Rcommaaccent" unicode="&#x156;" horiz-adv-x="939" 
d="M819 0h-45l-213 282h-444v-281h-36v733h582q52 0 88.5 -37t36.5 -89v-201q0 -52 -36.5 -88.5t-88.5 -36.5h-57zM117 698v-380h546q37 0 63.5 26t26.5 63v201q0 38 -26.5 64t-63.5 26h-546zM387 -145h38l37 109h-38z" />
    <glyph glyph-name="rcommaaccent" unicode="&#x157;" horiz-adv-x="922" 
d="M116 698v-697h-36v733h559q52 0 88.5 -37t36.5 -89v-201q0 -52 -36.5 -88.5t-88.5 -36.5h-57l213 -282h-45l-213 282h-360v36h462q37 0 63.5 26t26.5 63v201q0 38 -26.5 64t-63.5 26h-523z" />
    <glyph glyph-name="Rcaron" unicode="&#x158;" horiz-adv-x="939" 
d="M819 0h-45l-213 282h-444v-281h-36v733h582q52 0 88.5 -37t36.5 -89v-201q0 -52 -36.5 -88.5t-88.5 -36.5h-57zM117 698v-380h546q37 0 63.5 26t26.5 63v201q0 38 -26.5 64t-63.5 26h-546zM405 771l-132 105l22 28l110 -87l113 88l22 -29z" />
    <glyph glyph-name="rcaron" unicode="&#x159;" horiz-adv-x="922" 
d="M116 698v-697h-36v733h559q52 0 88.5 -37t36.5 -89v-201q0 -52 -36.5 -88.5t-88.5 -36.5h-57l213 -282h-45l-213 282h-360v36h462q37 0 63.5 26t26.5 63v201q0 38 -26.5 64t-63.5 26h-523zM399 773l-132 105l22 28l110 -87l113 88l22 -29z" />
    <glyph glyph-name="Sacute" unicode="&#x15a;" horiz-adv-x="867" 
d="M619 0h-538v36h538q47 0 76.5 27.5t29.5 70.5v87q0 3 -1 8.5t-6.5 17.5t-15.5 22t-30.5 20.5t-48.5 15.5v1l-380 86q-60 13 -100 33q-31 15 -47 36q-21 25 -21 59v72q-1 62 38 101q38 41 91 41h526v-36h-526q-38 0 -65 -29q-29 -29 -28 -77v-72q0 -63 140 -93l379 -86
q81 -16 114 -68q17 -28 17 -53v-86q0 -58 -41 -96q-38 -38 -101 -38zM423 770h-43l65 109h43z" />
    <glyph glyph-name="sacute" unicode="&#x15b;" 
d="M619 0h-538v36h538q47 0 76.5 27.5t29.5 70.5v87q0 3 -1 8.5t-6.5 17.5t-15.5 22t-30.5 20.5t-48.5 15.5v1l-380 86q-60 13 -100 33q-31 15 -47 36q-21 25 -21 59v72q-1 62 38 101q38 41 91 41h526v-36h-526q-38 0 -65 -29q-29 -29 -28 -77v-72q0 -63 140 -93l379 -86
q81 -16 114 -68q17 -28 17 -53v-86q0 -58 -41 -96q-38 -38 -101 -38zM412 773h-43l65 109h43z" />
    <glyph glyph-name="Scircumflex" unicode="&#x15c;" horiz-adv-x="880" 
d="M619 0h-538v36h538q47 0 76.5 27.5t29.5 70.5v87q0 3 -1 8.5t-6.5 17.5t-15.5 22t-30.5 20.5t-48.5 15.5v1l-380 86q-60 13 -100 33q-31 15 -47 36q-21 25 -21 59v72q-1 62 38 101q38 41 91 41h526v-36h-526q-38 0 -65 -29q-29 -29 -28 -77v-72q0 -63 140 -93l379 -86
q81 -16 114 -68q17 -28 17 -53v-86q0 -58 -41 -96q-38 -38 -101 -38zM416 882l132 -106h-56l-76 60l-77 -60h-58z" />
    <glyph glyph-name="scircumflex" unicode="&#x15d;" 
d="M619 0h-538v36h538q47 0 76.5 27.5t29.5 70.5v87q0 3 -1 8.5t-6.5 17.5t-15.5 22t-30.5 20.5t-48.5 15.5v1l-380 86q-60 13 -100 33q-31 15 -47 36q-21 25 -21 59v72q-1 62 38 101q38 41 91 41h526v-36h-526q-38 0 -65 -29q-29 -29 -28 -77v-72q0 -63 140 -93l379 -86
q81 -16 114 -68q17 -28 17 -53v-86q0 -58 -41 -96q-38 -38 -101 -38zM415 877l132 -106h-56l-76 60l-77 -60h-58z" />
    <glyph glyph-name="Scedilla" unicode="&#x15e;" horiz-adv-x="879" 
d="M472 -193h-138v36h136q17 2 28 14t11 28q0 17 -11.5 29.5t-27.5 13.5h-108l24 72h-305v36h538q47 0 76.5 27.5t29.5 70.5v87q0 3 -1 8.5t-6.5 17.5t-15.5 22t-30.5 20.5t-48.5 15.5l-380 87q-60 13 -100 33q-31 15 -47 36q-21 25 -21 59v72q0 63 38 101q38 41 91 41h526
v-36h-526q-38 0 -65 -29q-28 -28 -28 -73v-76q0 -63 140 -93l379 -86q83 -19 114 -68q17 -28 17 -53v-86q0 -58 -41 -97q-39 -37 -101 -37h-194l-13 -37h60q32 -2 52 -25q21 -21 21 -53t-21 -53q-19 -22 -52 -25z" />
    <glyph glyph-name="scedilla" unicode="&#x15f;" 
d="M450 -193h-139v36h136q17 2 28 14t11 28q0 17 -11.5 29.5t-27.5 13.5h-108l24 72h-282v36h538q47 0 76.5 27.5t29.5 70.5v87q0 3 -1 8.5t-6.5 17.5t-15.5 22t-30.5 20.5t-48.5 15.5v1l-380 86q-60 13 -100 33q-31 15 -47 36q-21 25 -21 59v72q-1 62 38 101q38 41 91 41
h526v-36h-526q-38 0 -65 -29q-29 -29 -28 -77v-72q0 -63 140 -93l379 -86q81 -16 114 -68q17 -28 17 -53v-86q0 -58 -41 -96q-38 -38 -101 -38h-217l-13 -37h61q31 -2 51 -25q21 -21 21 -53t-21 -53q-19 -22 -51 -25z" />
    <glyph glyph-name="Scaron" unicode="&#x160;" 
d="M619 0h-538v36h538q47 0 76.5 27.5t29.5 70.5v87q0 3 -1 8.5t-6.5 17.5t-15.5 22t-30.5 20.5t-48.5 15.5v1l-380 86q-60 13 -100 33q-31 15 -47 36q-21 25 -21 59v72q-1 62 38 101q38 41 91 41h526v-36h-526q-38 0 -65 -29q-29 -29 -28 -77v-72q0 -63 140 -93l379 -86
q81 -16 114 -68q17 -28 17 -53v-86q0 -58 -41 -96q-38 -38 -101 -38zM418 773l-132 105l22 28l110 -87l113 88l22 -29z" />
    <glyph glyph-name="scaron" unicode="&#x161;" 
d="M619 0h-538v36h538q47 0 76.5 27.5t29.5 70.5v87q0 3 -1 8.5t-6.5 17.5t-15.5 22t-30.5 20.5t-48.5 15.5v1l-380 86q-60 13 -100 33q-31 15 -47 36q-21 25 -21 59v72q-1 62 38 101q38 41 91 41h526v-36h-526q-38 0 -65 -29q-29 -29 -28 -77v-72q0 -63 140 -93l379 -86
q81 -16 114 -68q17 -28 17 -53v-86q0 -58 -41 -96q-38 -38 -101 -38zM415 769l-132 105l22 28l110 -87l113 88l22 -29z" />
    <glyph glyph-name="Tcommaaccent" unicode="&#x162;" horiz-adv-x="756" 
d="M366 0h-36v697h-330v36h697v-36h-331v-697zM340 -145l37 109h38l-37 -109h-38z" />
    <glyph glyph-name="tcommaaccent" unicode="&#x163;" horiz-adv-x="756" 
d="M366 0h-36v697h-330v36h697v-36h-331v-697zM340 -145l37 109h38l-37 -109h-38z" />
    <glyph glyph-name="Tcaron" unicode="&#x164;" horiz-adv-x="756" 
d="M366 0h-36v697h-330v36h697v-36h-331v-697zM346 769l-132 105l22 28l110 -87l113 88l22 -29z" />
    <glyph glyph-name="tcaron" unicode="&#x165;" horiz-adv-x="946" 
d="M366 0h-36v697h-330v36h697v-36h-331v-697zM813 668l37 109h38l-37 -109h-38z" />
    <glyph glyph-name="Utilde" unicode="&#x168;" horiz-adv-x="947" 
d="M80 733h35v-543q0 -64 45.5 -109t109.5 -45h373q64 0 109.5 45t45.5 109v543h35v-543q0 -79 -55.5 -134.5t-134.5 -55.5h-373q-79 0 -134.5 55.5t-55.5 134.5v543zM521 795q-43 0 -77 22q-31 21 -72 16q-39 -5 -65 -34l-27 24q36 39 87 45q52 8 96 -21q35 -20 72 -16
q40 6 66 34l26 -24q-36 -39 -87 -45q-6 -1 -19 -1z" />
    <glyph glyph-name="utilde" unicode="&#x169;" horiz-adv-x="947" 
d="M80 733h35v-543q0 -64 45.5 -109t109.5 -45h373q64 0 109.5 45t45.5 109v543h35v-543q0 -79 -55.5 -134.5t-134.5 -55.5h-373q-79 0 -134.5 55.5t-55.5 134.5v543zM523 779q-43 0 -77 22q-31 21 -72 16q-39 -5 -65 -34l-27 24q36 39 87 45q52 8 96 -21q35 -20 72 -16
q40 6 66 34l26 -24q-36 -39 -87 -45q-6 -1 -19 -1z" />
    <glyph glyph-name="Umacron" unicode="&#x16a;" horiz-adv-x="947" 
d="M80 733h35v-543q0 -64 45.5 -109t109.5 -45h373q64 0 109.5 45t45.5 109v543h35v-543q0 -79 -55.5 -134.5t-134.5 -55.5h-373q-79 0 -134.5 55.5t-55.5 134.5v543zM293 770v36h324v-36h-324z" />
    <glyph glyph-name="umacron" unicode="&#x16b;" horiz-adv-x="947" 
d="M80 733h35v-543q0 -64 45.5 -109t109.5 -45h373q64 0 109.5 45t45.5 109v543h35v-543q0 -79 -55.5 -134.5t-134.5 -55.5h-373q-79 0 -134.5 55.5t-55.5 134.5v543zM304 773v36h324v-36h-324z" />
    <glyph glyph-name="Ubreve" unicode="&#x16c;" horiz-adv-x="947" 
d="M80 733h35v-543q0 -64 45.5 -109t109.5 -45h373q64 0 109.5 45t45.5 109v543h35v-543q0 -79 -55.5 -134.5t-134.5 -55.5h-373q-79 0 -134.5 55.5t-55.5 134.5v543zM505 797h-119q-33 0 -61.5 16.5t-45.5 45.5l31 18q24 -44 76 -44h119q50 0 76 44l31 -18
q-17 -29 -45.5 -45.5t-61.5 -16.5z" />
    <glyph glyph-name="ubreve" unicode="&#x16d;" horiz-adv-x="947" 
d="M80 733h35v-543q0 -64 45.5 -109t109.5 -45h373q64 0 109.5 45t45.5 109v543h35v-543q0 -79 -55.5 -134.5t-134.5 -55.5h-373q-79 0 -134.5 55.5t-55.5 134.5v543zM511 793h-119q-33 0 -61.5 16.5t-45.5 45.5l31 18q24 -44 76 -44h119q50 0 76 44l31 -18
q-17 -29 -45.5 -45.5t-61.5 -16.5z" />
    <glyph glyph-name="Uring" unicode="&#x16e;" horiz-adv-x="947" 
d="M80 733h35v-543q0 -64 45.5 -109t109.5 -45h373q64 0 109.5 45t45.5 109v543h35v-543q0 -79 -55.5 -134.5t-134.5 -55.5h-373q-79 0 -134.5 55.5t-55.5 134.5v543zM448 772q-32 0 -54 22t-22 54t22 54t54 22q31 0 53 -22.5t22 -53.5t-22 -53.5t-53 -22.5zM448 892
q-19 0 -32 -13t-13 -31q0 -19 13 -31.5t32 -12.5q18 0 31 12.5t13 31.5q0 18 -13 31t-31 13z" />
    <glyph glyph-name="uring" unicode="&#x16f;" horiz-adv-x="947" 
d="M80 733h35v-543q0 -64 45.5 -109t109.5 -45h373q64 0 109.5 45t45.5 109v543h35v-543q0 -79 -55.5 -134.5t-134.5 -55.5h-373q-79 0 -134.5 55.5t-55.5 134.5v543zM451 777q-31 0 -53.5 22.5t-22.5 53.5t22.5 53.5t53.5 22.5t53 -22.5t22 -53.5t-22 -53.5t-53 -22.5z
M451 897q-19 0 -32 -13t-13 -31q0 -19 13 -31.5t32 -12.5q18 0 31 12.5t13 31.5q0 18 -13 31t-31 13z" />
    <glyph glyph-name="Uhungarumlaut" unicode="&#x170;" horiz-adv-x="947" 
d="M80 733h35v-543q0 -64 45.5 -109t109.5 -45h373q64 0 109.5 45t45.5 109v543h35v-543q0 -79 -55.5 -134.5t-134.5 -55.5h-373q-79 0 -134.5 55.5t-55.5 134.5v543zM396 774h-43l65 109h43zM499 774h-43l65 109h43z" />
    <glyph glyph-name="uhungarumlaut" unicode="&#x171;" horiz-adv-x="947" 
d="M80 733h35v-543q0 -64 45.5 -109t109.5 -45h373q64 0 109.5 45t45.5 109v543h35v-543q0 -79 -55.5 -134.5t-134.5 -55.5h-373q-79 0 -134.5 55.5t-55.5 134.5v543zM405 774h-43l65 109h43zM508 774h-43l65 109h43z" />
    <glyph glyph-name="Uogonek" unicode="&#x172;" horiz-adv-x="947" 
d="M537 -157v-36h-54q-50 0 -73 38q-19 34 4 74l46 81h-190q-79 0 -134.5 55.5t-55.5 134.5v543h35v-543q0 -64 45.5 -109t109.5 -45h373q64 0 109.5 45t45.5 109v543h35v-543q0 -79 -55.5 -134.5t-134.5 -55.5h-141l-56 -99q-14 -23 -5 -38q12 -20 42 -20h54z" />
    <glyph glyph-name="uogonek" unicode="&#x173;" horiz-adv-x="947" 
d="M80 733h35v-543q0 -64 45.5 -109t109.5 -45h373q64 0 109.5 45t45.5 109v543h35v-543q0 -79 -55.5 -134.5t-134.5 -55.5h-373q-79 0 -134.5 55.5t-55.5 134.5v543zM833 -193h-54q-50 0 -73 38q-19 34 4 74l62 108l31 -18l-61 -108q-14 -23 -5 -38q12 -20 42 -20h54v-36z
" />
    <glyph glyph-name="Wcircumflex" unicode="&#x174;" horiz-adv-x="1564" 
d="M1116 -4q-41 0 -73 23q-28 24 -48 63v1v1l-228 592q-8 22 -24 22t-24 -22l-228 -593v-1q-20 -39 -48 -63q-32 -23 -73 -23q-44 0 -75 25q-32 23 -46 63l-254 649h38l249 -637q24 -64 88 -64q56 0 88 65l228 592q16 44 57 44t57 -44l228 -592q32 -65 88 -65q64 0 88 64
l249 637h39l-255 -649q-14 -40 -46 -63q-31 -25 -75 -25zM743 878l132 -106h-56l-76 60l-77 -60h-58z" />
    <glyph glyph-name="wcircumflex" unicode="&#x175;" horiz-adv-x="1564" 
d="M1116 -4q-41 0 -73 23q-28 24 -48 63v1v1l-228 592q-8 22 -24 22t-24 -22l-228 -593v-1q-20 -39 -48 -63q-32 -23 -73 -23q-44 0 -75 25q-32 23 -46 63l-254 649h38l249 -637q24 -64 88 -64q56 0 88 65l228 592q16 44 57 44t57 -44l228 -592q32 -65 88 -65q64 0 88 64
l249 637h39l-255 -649q-14 -40 -46 -63q-31 -25 -75 -25zM742 876l132 -106h-56l-76 60l-77 -60h-58z" />
    <glyph glyph-name="Ycircumflex" unicode="&#x176;" horiz-adv-x="887" 
d="M408 279v-279h-36v279q-34 5 -56 25t-51 62l-255 367h43l242 -346q29 -42 47.5 -57.5t47.5 -15.5q30 0 49 15.5t47 56.5l241 347h44l-256 -367q-28 -43 -52 -63q-24 -21 -55 -24zM394 876l132 -106h-56l-76 60l-77 -60h-58z" />
    <glyph glyph-name="ycircumflex" unicode="&#x177;" horiz-adv-x="830" 
d="M390 278q-29 0 -53 13.5t-37 28.5t-35 46l-255 367h43l242 -346q29 -42 47.5 -57.5t47.5 -15.5q30 0 49 15.5t47 56.5l241 347h44l-256 -367q-28 -43 -52 -63q-29 -25 -73 -25zM408 0h-36v257h36v-257zM395 876l132 -106h-56l-76 60l-77 -60h-58z" />
    <glyph glyph-name="Ydieresis" unicode="&#x178;" horiz-adv-x="887" 
d="M408 279v-279h-36v279q-34 5 -56 25t-51 62l-255 367h43l242 -346q29 -42 47.5 -57.5t47.5 -15.5q30 0 49 15.5t47 56.5l241 347h44l-256 -367q-28 -43 -52 -63q-24 -21 -55 -24zM325 731h-36v85h36v-85zM485 731h-36v85h36v-85z" />
    <glyph glyph-name="Zacute" unicode="&#x179;" 
d="M718 0h-564q-37 0 -57 24q-17 19 -17 44q0 38 28 63v1l561 497q16 14 16 36q0 4 -1.5 10t-11 14.5t-26.5 8.5h-548v36h548q35 0 58 -25q17 -20 17 -44q0 -37 -28 -63l-561 -497q-16 -14 -16 -37q0 -4 1 -9.5t10.5 -14t26.5 -8.5h564v-36zM402 773h-43l65 109h43z" />
    <glyph glyph-name="zacute" unicode="&#x17a;" 
d="M718 0h-564q-37 0 -57 24q-17 19 -17 44q0 38 28 63v1l561 497q16 14 16 36q0 4 -1.5 10t-11 14.5t-26.5 8.5h-548v36h548q35 0 58 -25q17 -20 17 -44q0 -37 -28 -63l-561 -497q-16 -14 -16 -37q0 -4 1 -9.5t10.5 -14t26.5 -8.5h564v-36zM396 773h-43l65 109h43z" />
    <glyph glyph-name="Zdotaccent" unicode="&#x17b;" 
d="M718 0h-564q-37 0 -57 24q-17 19 -17 44q0 38 28 63v1l561 497q16 14 16 36q0 4 -1.5 10t-11 14.5t-26.5 8.5h-548v36h548q35 0 58 -25q17 -20 17 -44q0 -37 -28 -63l-561 -497q-16 -14 -16 -37q0 -4 1 -9.5t10.5 -14t26.5 -8.5h564v-36zM418 773h-36v85h36v-85z" />
    <glyph glyph-name="zdotaccent" unicode="&#x17c;" 
d="M718 0h-564q-37 0 -57 24q-17 19 -17 44q0 38 28 63v1l561 497q16 14 16 36q0 4 -1.5 10t-11 14.5t-26.5 8.5h-548v36h548q35 0 58 -25q17 -20 17 -44q0 -37 -28 -63l-561 -497q-16 -14 -16 -37q0 -4 1 -9.5t10.5 -14t26.5 -8.5h564v-36zM434 773h-36v85h36v-85z" />
    <glyph glyph-name="Zcaron" unicode="&#x17d;" 
d="M718 0h-564q-37 0 -57 24q-17 19 -17 44q0 38 28 63v1l561 497q16 14 16 36q0 4 -1.5 10t-11 14.5t-26.5 8.5h-548v36h548q35 0 58 -25q17 -20 17 -44q0 -37 -28 -63l-561 -497q-16 -14 -16 -37q0 -4 1 -9.5t10.5 -14t26.5 -8.5h564v-36zM404 772l-132 105l22 28l110 -87
l113 88l22 -29z" />
    <glyph glyph-name="zcaron" unicode="&#x17e;" 
d="M718 0h-564q-37 0 -57 24q-17 19 -17 44q0 38 28 63v1l561 497q16 14 16 36q0 4 -1.5 10t-11 14.5t-26.5 8.5h-548v36h548q35 0 58 -25q17 -20 17 -44q0 -37 -28 -63l-561 -497q-16 -14 -16 -37q0 -4 1 -9.5t10.5 -14t26.5 -8.5h564v-36zM405 773l-132 105l22 28l110 -87
l113 88l22 -29z" />
    <glyph glyph-name="uni01C5" unicode="&#x1c5;" horiz-adv-x="1776" 
d="M673 0h-593v733h593q79 0 134.5 -56t55.5 -135v-352q0 -79 -55.5 -134.5t-134.5 -55.5zM115 36h558q64 0 109.5 45t45.5 109v352q0 64 -45.5 109.5t-109.5 45.5h-558v-661zM1636 0h-564q-37 0 -57 24q-17 19 -17 44q0 38 28 63v1l561 497q16 14 16 36q0 4 -1.5 10
t-11 14.5t-26.5 8.5h-548v36h548q35 0 58 -25q17 -20 17 -44q0 -37 -28 -63l-561 -497q-16 -14 -16 -37q0 -4 1 -9.5t10.5 -14t26.5 -8.5h564v-36zM427 769l-132 105l22 28l110 -87l113 88l22 -29z" />
    <glyph glyph-name="Scommaaccent" unicode="&#x218;" horiz-adv-x="867" 
d="M619 0h-538v36h538q47 0 76.5 27.5t29.5 70.5v87q0 3 -1 8.5t-6.5 17.5t-15.5 22t-30.5 20.5t-48.5 15.5v1l-380 86q-60 13 -100 33q-31 15 -47 36q-21 25 -21 59v72q-1 62 38 101q38 41 91 41h526v-36h-526q-38 0 -65 -29q-29 -29 -28 -77v-72q0 -63 140 -93l379 -86
q81 -16 114 -68q17 -28 17 -53v-86q0 -58 -41 -96q-38 -38 -101 -38zM370 -145l37 109h38l-37 -109h-38z" />
    <glyph glyph-name="scommaaccent" unicode="&#x219;" 
d="M619 0h-538v36h538q47 0 76.5 27.5t29.5 70.5v87q0 3 -1 8.5t-6.5 17.5t-15.5 22t-30.5 20.5t-48.5 15.5v1l-380 86q-60 13 -100 33q-31 15 -47 36q-21 25 -21 59v72q-1 62 38 101q38 41 91 41h526v-36h-526q-38 0 -65 -29q-29 -29 -28 -77v-72q0 -63 140 -93l379 -86
q81 -16 114 -68q17 -28 17 -53v-86q0 -58 -41 -96q-38 -38 -101 -38zM379 -145l37 109h38l-37 -109h-38z" />
    <glyph glyph-name="uni021A" unicode="&#x21a;" horiz-adv-x="756" 
d="M366 0h-36v697h-330v36h697v-36h-331v-697zM298 -139l37 109h38l-37 -109h-38z" />
    <glyph glyph-name="uni021B" unicode="&#x21b;" horiz-adv-x="756" 
d="M366 0h-36v697h-330v36h697v-36h-331v-697zM301 -145l37 109h38l-37 -109h-38z" />
    <glyph glyph-name="uni022A" unicode="&#x22a;" horiz-adv-x="989" 
d="M743 0h-473q-79 0 -134.5 55.5t-55.5 134.5v353q0 79 55.5 135t134.5 56h473q79 0 134.5 -56t55.5 -135v-353q0 -79 -55.5 -134.5t-134.5 -55.5zM743 698h-473q-64 0 -109.5 -45.5t-45.5 -109.5v-353q0 -64 45.5 -109t109.5 -45h473q64 0 109.5 45t45.5 109v353
q0 64 -45.5 109.5t-109.5 45.5zM422 861h-36v85h36v-85zM582 861h-36v85h36v-85zM332 773v36h324v-36h-324z" />
    <glyph glyph-name="uni022B" unicode="&#x22b;" horiz-adv-x="989" 
d="M743 0h-473q-79 0 -134.5 55.5t-55.5 134.5v353q0 79 55.5 135t134.5 56h473q79 0 134.5 -56t55.5 -135v-353q0 -79 -55.5 -134.5t-134.5 -55.5zM743 698h-473q-64 0 -109.5 -45.5t-45.5 -109.5v-353q0 -64 45.5 -109t109.5 -45h473q64 0 109.5 45t45.5 109v353
q0 64 -45.5 109.5t-109.5 45.5zM423 887h-36v85h36v-85zM583 887h-36v85h36v-85zM332 797v36h324v-36h-324z" />
    <glyph glyph-name="circumflex" unicode="&#x2c6;" 
d="M411 726l132 -106h-56l-76 60l-77 -60h-58z" />
    <glyph glyph-name="caron" unicode="&#x2c7;" horiz-adv-x="844" 
d="M416 563l-132 105l22 28l110 -87l113 88l22 -29z" />
    <glyph glyph-name="breve" unicode="&#x2d8;" 
d="M473 616h-119q-33 0 -61.5 16.5t-45.5 45.5l31 18q24 -44 76 -44h119q50 0 76 44l31 -18q-17 -29 -45.5 -45.5t-61.5 -16.5z" />
    <glyph glyph-name="dotaccent" unicode="&#x2d9;" horiz-adv-x="646" 
d="M338 773h-36v85h36v-85z" />
    <glyph glyph-name="ring" unicode="&#x2da;" horiz-adv-x="809" 
d="M394 777q-32 0 -54 22.5t-22 53.5t22 53.5t54 22.5q31 0 53 -22.5t22 -53.5t-22 -53.5t-53 -22.5zM394 897q-19 0 -32 -13t-13 -31q0 -19 13 -31.5t32 -12.5q18 0 31 12.5t13 31.5q0 18 -13 31t-31 13z" />
    <glyph glyph-name="ogonek" unicode="&#x2db;" 
d="M473 -193h-54q-50 0 -73 38q-19 34 4 74l62 108l31 -18l-61 -108q-14 -23 -5 -38q12 -20 42 -20h54v-36z" />
    <glyph glyph-name="tilde" unicode="&#x2dc;" 
d="M497 585q-43 0 -77 22q-31 21 -72 16q-39 -5 -65 -34l-27 24q36 39 87 45q52 8 96 -21q35 -20 72 -16q40 6 66 34l26 -24q-36 -39 -87 -45q-6 -1 -19 -1z" />
    <glyph glyph-name="hungarumlaut" unicode="&#x2dd;" horiz-adv-x="814" 
d="M426 604h-43l65 109h43zM529 604h-43l65 109h43z" />
    <glyph glyph-name="uni0400" unicode="&#x400;" horiz-adv-x="826" 
d="M80 123v487q0 51 36 87t86 36h503v-35h-503q-36 0 -61.5 -26t-25.5 -62v-226h552v-36h-552v-225q0 -36 25.5 -61.5t61.5 -25.5h503v-36h-503q-50 0 -86 36t-36 87zM447 774h-43l-65 109h43z" />
    <glyph glyph-name="afii10023" unicode="&#x401;" horiz-adv-x="826" 
d="M80 123v487q0 51 36 87t86 36h543v-35h-543q-36 0 -61.5 -26t-25.5 -62v-226h592v-36h-592v-225q0 -36 25.5 -61.5t61.5 -25.5h543v-36h-543q-50 0 -86 36t-36 87z" />
    <glyph glyph-name="afii10052" unicode="&#x403;" horiz-adv-x="766" 
d="M652 733v-36h-470q-27 0 -46.5 -19t-19.5 -46v-632h-36v632q0 41 30 71t72 30h470zM372 810h-43l65 109h43z" />
    <glyph glyph-name="uni0406" unicode="&#x406;" 
 />
    <glyph glyph-name="afii10056" unicode="&#x407;" 
 />
    <glyph glyph-name="afii10059" unicode="&#x40a;" horiz-adv-x="1455" 
d="M739 384h473q52 0 88.5 -36.5t36.5 -88.5v-133q0 -52 -36.5 -89t-88.5 -37h-509v348h-584v-348h-36v733h36v-349h584v349h36v-349zM739 348v-312h473q38 0 64 26t26 64v133q0 37 -26.5 63t-63.5 26h-473z" />
    <glyph glyph-name="afii10060" unicode="&#x40b;" horiz-adv-x="932" 
d="M644 525q79 0 134.5 -55.5t55.5 -134.5v-335h-35v335q0 64 -45.5 109t-109.5 45h-203q-64 0 -109.5 -45t-45.5 -109v-335h-36v697h-250v36h527v-36h-241v-252q57 80 155 80h203z" />
    <glyph glyph-name="afii10061" unicode="&#x40c;" horiz-adv-x="927" 
d="M590 359q22 -17 52 -63l206 -296h-43l-192 276q-28 41 -47 56.5t-49 15.5h-401v-348h-35v733h35v-349h401q30 0 49 15.5t47 57.5l192 276h44l-207 -296q-30 -46 -52 -64q-2 -1 -5 -3.5t-4 -3.5q6 -4 9 -7zM452 810h-43l65 109h43z" />
    <glyph glyph-name="uni040D" unicode="&#x40d;" horiz-adv-x="937" 
d="M116 733v-666q0 -27 20 -33q26 -9 44 18h1l490 647q15 21 39 29q21 9 46 2q19 -6 32 -24q13 -19 13 -44v-666h-36v666q0 28 -20 34q-26 8 -45 -18v-1l-491 -646q-14 -22 -38 -30q-23 -9 -46 -1q-22 7 -32 23q-13 17 -13 44v666h36zM472 774h-43l-65 109h43z" />
    <glyph glyph-name="afii10062" unicode="&#x40e;" horiz-adv-x="947" 
d="M85 732h35v-322q0 -37 26.5 -63t63.5 -26h474q36 0 61.5 25t27.5 60v327h36v-323v-5v-279q0 -52 -36.5 -89t-88.5 -37h-581v36h581q37 0 63 26.5t26 63.5v196q-37 -37 -89 -37h-474q-52 0 -88.5 36.5t-36.5 88.5v322zM809 733h-36h36zM503 772h-119q-33 0 -61.5 16.5
t-45.5 45.5l31 18q24 -44 76 -44h119q50 0 76 44l31 -18q-17 -29 -45.5 -45.5t-61.5 -16.5z" />
    <glyph glyph-name="afii10145" unicode="&#x40f;" 
d="M703 733h35v-677q0 -24 -16 -40t-40 -16h-25h-36h-190v-159h-36v159h-259q-24 0 -40 16t-16 40v677h35v-677q0 -9 6 -15q8 -6 15 -6h485h36h25q7 0 15 6q6 6 6 15v677z" />
    <glyph glyph-name="afii10017" unicode="&#x410;" horiz-adv-x="890" 
d="M171 222l-86 -222h-39l256 653q15 39 46 63q33 24 75 24q43 0 75 -24q31 -24 47 -63l255 -653h-38l-87 222h-504zM423 705q-29 0 -52.5 -17.5t-35.5 -47.5l-150 -382h476l-150 382q-11 30 -34.5 47.5t-53.5 17.5z" />
    <glyph glyph-name="afii10018" unicode="&#x411;" horiz-adv-x="880" 
d="M80 0v733h669v-36h-633v-255h513q52 0 88.5 -36.5t36.5 -88.5v-191q0 -52 -36.5 -89t-88.5 -37h-549zM116 406v-370h513q37 0 63.5 26t26.5 64v191q0 37 -26.5 63t-63.5 26h-513z" />
    <glyph glyph-name="afii10019" unicode="&#x412;" horiz-adv-x="896" 
d="M729 368q30 -16 48 -45.5t18 -64.5v-133q0 -52 -36.5 -88.5t-88.5 -36.5h-572v1h-18v733h580q52 0 88.5 -37t36.5 -89v-136q0 -68 -56 -104zM116 698v-315h544q37 0 63.5 26t26.5 63v136q0 38 -26 64t-64 26h-544zM760 125v133q0 37 -26.5 63t-63.5 26h-554v-311h554
q37 0 63.5 26t26.5 63z" />
    <glyph glyph-name="afii10020" unicode="&#x413;" horiz-adv-x="730" 
d="M652 733v-36h-470q-27 0 -46.5 -19t-19.5 -46v-632h-36v632q0 41 30 71t72 30h470z" />
    <glyph glyph-name="afii10021" unicode="&#x414;" horiz-adv-x="1041" 
d="M943 -108v87q0 9 -6 15q-8 6 -15 6h-836q-7 0 -15 -6q-6 -6 -6 -15v-87h-35v87q0 24 16 40t40 16h56l243 618q15 39 46 63q33 24 75 24q44 0 75 -24t47 -63l241 -618h53q24 0 40 -16t16 -40v-87h-35zM506 705q-29 0 -52.5 -17.5t-35.5 -47.5l-237 -605h650l-237 605
q-11 30 -34.5 47.5t-53.5 17.5z" />
    <glyph glyph-name="afii10022" unicode="&#x415;" horiz-adv-x="826" 
d="M80 123v487q0 51 36 87t86 36h503v-35h-503q-36 0 -61.5 -26t-25.5 -62v-226h552v-36h-552v-225q0 -36 25.5 -61.5t61.5 -25.5h503v-36h-503q-50 0 -86 36t-36 87z" />
    <glyph glyph-name="afii10024" unicode="&#x416;" horiz-adv-x="1520" 
d="M1170 359q22 -17 52 -63l206 -296h-43l-192 276q-28 41 -47 56.5t-49 15.5h-331v-348h-35v348h-331q-30 0 -49 -15.5t-47 -56.5l-192 -276h-43l206 296q30 46 52 63q3 3 9 7q-1 1 -4 3.5t-5 3.5q-22 18 -52 64l-207 296h44l192 -276q28 -42 47 -57.5t49 -15.5h331v349h35
v-349h331q30 0 49 15.5t47 57.5l192 276h44l-207 -296q-30 -46 -52 -64q-1 -1 -4 -3.5t-5 -3.5q6 -4 9 -7z" />
    <glyph glyph-name="afii10025" unicode="&#x417;" horiz-adv-x="887" 
d="M782 488q0 -70 -60 -107q60 -37 60 -107v-149q0 -52 -36.5 -88.5t-88.5 -36.5h-451q-52 0 -88.5 36.5t-36.5 88.5h35q0 -37 26.5 -63t63.5 -26h451q37 0 63.5 26t26.5 63v149q0 37 -26 63t-63 26h-1h-451v36h451h1q37 0 63 26t26 63v120q0 38 -26.5 64t-63.5 26h-451
q-38 0 -64 -26t-26 -64h-35q0 52 36.5 89t88.5 37h451q52 0 88.5 -37t36.5 -89v-120z" />
    <glyph glyph-name="afii10026" unicode="&#x418;" horiz-adv-x="937" 
d="M116 733v-666q0 -27 20 -33q26 -9 44 18h1l490 647q15 21 39 29q21 9 46 2q19 -6 32 -24q13 -19 13 -44v-666h-36v666q0 28 -20 34q-26 8 -45 -18v-1l-491 -646q-14 -22 -38 -30q-23 -9 -46 -1q-22 7 -32 23q-13 17 -13 44v666h36z" />
    <glyph glyph-name="afii10027" unicode="&#x419;" horiz-adv-x="897" 
d="M116 733v-666q0 -27 20 -33q26 -9 44 18h1l490 647q15 21 39 29q21 9 46 2q19 -6 32 -24q13 -19 13 -44v-666h-36v666q0 28 -20 34q-26 8 -45 -18v-1l-491 -646q-14 -22 -38 -30q-23 -9 -46 -1q-22 7 -32 23q-13 17 -13 44v666h36zM508 774h-119q-33 0 -61.5 16.5
t-45.5 45.5l31 18q24 -44 76 -44h119q50 0 76 44l31 -18q-17 -29 -45.5 -45.5t-61.5 -16.5z" />
    <glyph glyph-name="afii10028" unicode="&#x41a;" horiz-adv-x="927" 
d="M590 359q22 -17 52 -63l206 -296h-43l-192 276q-28 41 -47 56.5t-49 15.5h-401v-348h-35v733h35v-349h401q30 0 49 15.5t47 57.5l192 276h44l-207 -296q-30 -46 -52 -64q-2 -1 -5 -3.5t-4 -3.5q6 -4 9 -7z" />
    <glyph glyph-name="afii10029" unicode="&#x41b;" horiz-adv-x="890" 
d="M85 0h-39l256 653q15 39 46 63q33 24 75 24q43 0 75 -24q31 -24 47 -63l255 -653h-38l-251 640q-11 30 -34.5 47.5t-53.5 17.5q-29 0 -52.5 -17.5t-35.5 -47.5z" />
    <glyph glyph-name="afii10030" unicode="&#x41c;" horiz-adv-x="1229" 
d="M1050 662v-662h-36v662q0 27 -20 33q-27 8 -44 -18l-385 -569l-385 569q-18 27 -44 18q-20 -6 -20 -33v-662h-36v662q0 27 13 44q10 16 32 23q23 8 46 -1q25 -10 39 -30l355 -526l355 526q14 20 39 30q22 9 46 1q20 -6 32 -23q13 -17 13 -44z" />
    <glyph glyph-name="afii10031" unicode="&#x41d;" horiz-adv-x="938" 
d="M800 0h-36v348h-644v-348h-36v733h36v-349h644v349h36v-733z" />
    <glyph glyph-name="afii10032" unicode="&#x41e;" horiz-adv-x="1092" 
d="M743 0h-473q-79 0 -134.5 55.5t-55.5 134.5v353q0 79 55.5 135t134.5 56h473q79 0 134.5 -56t55.5 -135v-353q0 -79 -55.5 -134.5t-134.5 -55.5zM743 698h-473q-64 0 -109.5 -45.5t-45.5 -109.5v-353q0 -64 45.5 -109t109.5 -45h473q64 0 109.5 45t45.5 109v353
q0 64 -45.5 109.5t-109.5 45.5z" />
    <glyph glyph-name="afii10033" unicode="&#x41f;" horiz-adv-x="927" 
d="M793 0h-35v677q0 9 -6 15q-8 6 -15 6h-601q-7 0 -15 -6q-6 -6 -6 -15v-677h-35v677q0 24 16 40t40 16h601q24 0 40 -16t16 -40v-677z" />
    <glyph glyph-name="afii10034" unicode="&#x420;" horiz-adv-x="883" 
d="M655 282h-513v-281h-36v733h549q52 0 88.5 -37t36.5 -89v-201q0 -52 -36.5 -88.5t-88.5 -36.5zM142 698v-380h513q37 0 63.5 26t26.5 63v201q0 38 -26.5 64t-63.5 26h-513z" />
    <glyph glyph-name="afii10035" unicode="&#x421;" horiz-adv-x="867" 
d="M769 734v-36h-499q-64 0 -109.5 -45.5t-45.5 -109.5v-353q0 -64 45.5 -109t109.5 -45h499v-36h-499q-79 0 -134.5 55.5t-55.5 134.5v353q0 79 55.5 135t134.5 56h499z" />
    <glyph glyph-name="afii10036" unicode="&#x422;" horiz-adv-x="756" 
d="M366 0h-36v697h-330v36h697v-36h-331v-697z" />
    <glyph glyph-name="afii10037" unicode="&#x423;" horiz-adv-x="947" 
d="M85 732h35v-322q0 -37 26.5 -63t63.5 -26h474q36 0 61.5 25t27.5 60v327h36v-323v-5v-279q0 -52 -36.5 -89t-88.5 -37h-581v36h581q37 0 63 26.5t26 63.5v196q-37 -37 -89 -37h-474q-52 0 -88.5 36.5t-36.5 88.5v322zM809 733h-36h36z" />
    <glyph glyph-name="afii10038" unicode="&#x424;" horiz-adv-x="1202" 
d="M614 -68h-36v68h-308q-79 0 -134.5 55.5t-55.5 134.5v352q0 79 55.5 135t134.5 56h308v52h36v-52h299q79 0 134.5 -56t55.5 -135v-352q0 -79 -55.5 -134.5t-134.5 -55.5h-299v-68zM578 697h-308q-64 0 -109.5 -45.5t-45.5 -109.5v-352q0 -64 45.5 -109t109.5 -45h308v661
zM614 36h299q64 0 109.5 45t45.5 109v352q0 64 -45.5 109.5t-109.5 45.5h-299v-661z" />
    <glyph glyph-name="afii10039" unicode="&#x425;" horiz-adv-x="781" 
d="M705 0h-46l-286 337l-285 -337h-48l309 365l-311 368h46l288 -341l288 341h49l-313 -369z" />
    <glyph glyph-name="afii10040" unicode="&#x426;" horiz-adv-x="1000" 
d="M879 19q16 -16 16 -40v-87h-35v87q0 9 -6 15q-8 6 -15 6h-84h-619q-24 0 -40 16t-16 40v677h35v-677q0 -9 6 -15q8 -6 15 -6h619q7 0 15 6q6 6 6 15v677h35v-677q0 -12 -4 -21h32q24 0 40 -16z" />
    <glyph glyph-name="afii10041" unicode="&#x427;" horiz-adv-x="920" 
d="M85 732h35v-346q0 -37 26.5 -63t63.5 -26h474q36 0 61.5 25t27.5 60v351h36v-352v-381h-36v298q-37 -37 -89 -37h-474q-52 0 -88.5 36.5t-36.5 88.5v346zM809 733h-36h36z" />
    <glyph glyph-name="afii10042" unicode="&#x428;" horiz-adv-x="1260" 
d="M1146 733h35v-677q0 -24 -16 -40t-40 -16h-989q-24 0 -40 16t-16 40v677h35v-677q0 -9 6 -15q8 -6 15 -6h477v698h35v-698h477q7 0 15 6q6 6 6 15v677z" />
    <glyph glyph-name="afii10043" unicode="&#x429;" horiz-adv-x="1375" 
d="M1249 19q16 -16 16 -40v-87h-35v87q0 9 -6 15q-8 6 -15 6h-84h-989q-24 0 -40 16t-16 40v677h35v-677q0 -9 6 -15q8 -6 15 -6h477v698h35v-698h477q7 0 15 6q6 6 6 15v677h35v-677q0 -12 -4 -21h32q24 0 40 -16z" />
    <glyph glyph-name="afii10044" unicode="&#x42a;" horiz-adv-x="989" 
d="M2 697v36h224v-281h533q52 0 88.5 -36.5t36.5 -88.5v-201q0 -52 -36.5 -89t-88.5 -37h-569v697h-188zM226 416v-380h533q37 0 63.5 26t26.5 64v201q0 37 -26.5 63t-63.5 26h-533z" />
    <glyph glyph-name="afii10045" unicode="&#x42b;" horiz-adv-x="904" 
d="M116 452h513q52 0 88.5 -36.5t36.5 -88.5v-201q0 -52 -36.5 -89t-88.5 -37h-549v733h36v-281zM116 416v-380h513q37 0 63.5 26t26.5 64v201q0 37 -26.5 63t-63.5 26h-513zM856 0h-36v733h36v-733z" />
    <glyph glyph-name="afii10046" unicode="&#x42c;" horiz-adv-x="859" 
d="M118 453h513q52 0 88.5 -36.5t36.5 -88.5v-201q0 -52 -36.5 -89t-88.5 -37h-549v733h36v-281zM118 417v-380h513q37 0 63.5 26.5t26.5 63.5v201q0 37 -26.5 63t-63.5 26h-513z" />
    <glyph glyph-name="afii10047" unicode="&#x42d;" horiz-adv-x="954" 
d="M752 615q60 -104 60 -248q0 -145 -60 -249q-33 -55 -78 -85q-50 -33 -111 -33h-483v36h483q99 0 158 100q50 85 55 213h-695v35h695q-5 128 -55 213q-59 100 -158 100h-483v36h483q61 0 111 -33q45 -30 78 -85z" />
    <glyph glyph-name="afii10048" unicode="&#x42e;" horiz-adv-x="1215" 
d="M932 0h-473q-79 0 -134.5 55.5t-55.5 134.5v353q0 79 55.5 135t134.5 56h473q79 0 134.5 -56t55.5 -135v-353q0 -79 -55.5 -134.5t-134.5 -55.5zM459 698q-64 0 -109.5 -45.5t-45.5 -109.5v-353q0 -64 45.5 -109t109.5 -45h473q64 0 109.5 45t45.5 109v353
q0 64 -45.5 109.5t-109.5 45.5h-473zM116 0h-36v733h36v-733zM90 346v36h205v-36h-205z" />
    <glyph glyph-name="afii10049" unicode="&#x42f;" horiz-adv-x="922" 
d="M81 0l213 282h-57q-52 0 -88.5 36.5t-36.5 88.5v201q0 52 36.5 89t88.5 37h559v-733h-36v281h-421l-213 -282h-45zM760 698h-523q-37 0 -63.5 -26t-26.5 -64v-201q0 -37 26.5 -63t63.5 -26h523v380z" />
    <glyph glyph-name="afii10065" unicode="&#x430;" horiz-adv-x="890" 
d="M355 640l-250 -640h-39l256 653q15 39 46 63q33 24 75 24q44 0 75 -24t47 -63l255 -653h-38l-87 222h-424v36h410l-150 382q-11 30 -34.5 47.5t-53.5 17.5q-29 0 -52.5 -17.5t-35.5 -47.5z" />
    <glyph glyph-name="afii10066" unicode="&#x431;" horiz-adv-x="849" 
d="M116 697v-661h513q37 0 63.5 26t26.5 64v191q0 37 -26.5 63t-63.5 26h-452v36h452q52 0 88.5 -36.5t36.5 -88.5v-191q0 -52 -36.5 -89t-88.5 -37h-549v733h669v-36h-633z" />
    <glyph glyph-name="afii10067" unicode="&#x432;" horiz-adv-x="883" 
d="M708 369q30 -16 48 -45.5t18 -64.5v-134q0 -52 -36.5 -88.5t-88.5 -36.5h-551v1h-18v733h559q52 0 88.5 -37t36.5 -89v-135q0 -68 -56 -104zM177 348v36h462q37 0 63.5 26t26.5 63v135q0 38 -26.5 64t-63.5 26h-523v-662h533q37 0 63.5 26t26.5 63v134q0 37 -26.5 63
t-63.5 26h-472z" />
    <glyph glyph-name="afii10068" unicode="&#x433;" horiz-adv-x="766" 
d="M652 733v-36h-470q-27 0 -46.5 -19t-19.5 -46v-632h-36v632q0 41 30 71t72 30h470z" />
    <glyph glyph-name="afii10069" unicode="&#x434;" horiz-adv-x="984" 
d="M872 35h99v-35h-921v35h96l242 618q15 39 46 63q33 24 75 24q43 0 75 -24q31 -24 47 -63zM185 35h649l-237 605q-11 30 -34.5 47.5t-53.5 17.5q-29 0 -52.5 -17.5t-35.5 -47.5z" />
    <glyph glyph-name="afii10070" unicode="&#x435;" horiz-adv-x="826" 
d="M177 348v36h530v-36h-530zM115 610v-487q0 -36 25.5 -61.5t61.5 -25.5h543v-36h-543q-50 0 -86 36t-36 87v487q0 51 36 87t86 36h543v-35h-543q-36 0 -61.5 -26t-25.5 -62z" />
    <glyph glyph-name="afii10072" unicode="&#x436;" horiz-adv-x="1520" 
d="M766 733v-733h-35v348h-331q-30 0 -49 -15.5t-47 -56.5l-192 -276h-43l206 296q30 46 52 63q3 3 9 7q-1 1 -4 3.5t-5 3.5q-22 18 -52 64l-207 296h44l192 -276q28 -42 47 -57.5t49 -15.5h331v349h35zM802 348v36h295q30 0 49 15.5t47 57.5l192 276h44l-207 -296
q-30 -46 -52 -64q-1 -1 -4 -3.5t-5 -3.5q6 -4 9 -7q22 -17 52 -63l206 -296h-43l-192 276q-28 41 -47 56.5t-49 15.5h-295z" />
    <glyph glyph-name="afii10073" unicode="&#x437;" horiz-adv-x="887" 
d="M782 488q0 -70 -60 -107q60 -37 60 -107v-149q0 -52 -36.5 -88.5t-88.5 -36.5h-451q-52 0 -88.5 36.5t-36.5 88.5h35q0 -37 26.5 -63t63.5 -26h451q37 0 63.5 26t26.5 63v149q0 37 -26 63t-63 26h-1h-451v36h451h1q37 0 63 26t26 63v120q0 38 -26.5 64t-63.5 26h-451
q-38 0 -64 -26t-26 -64h-35q0 52 36.5 89t88.5 37h451q52 0 88.5 -37t36.5 -89v-120z" />
    <glyph glyph-name="afii10074" unicode="&#x438;" horiz-adv-x="897" 
d="M116 733v-666q0 -27 20 -33q26 -9 44 18h1l490 647q15 21 39 29q21 9 46 2q19 -6 32 -24q13 -19 13 -44v-666h-36v666q0 28 -20 34q-26 8 -45 -18v-1l-491 -646q-14 -22 -38 -30q-23 -9 -46 -1q-22 7 -32 23q-13 17 -13 44v666h36z" />
    <glyph glyph-name="afii10075" unicode="&#x439;" horiz-adv-x="897" 
d="M116 733v-666q0 -27 20 -33q26 -9 44 18h1l490 647q15 21 39 29q21 9 46 2q19 -6 32 -24q13 -19 13 -44v-666h-36v666q0 28 -20 34q-26 8 -45 -18v-1l-491 -646q-14 -22 -38 -30q-23 -9 -46 -1q-22 7 -32 23q-13 17 -13 44v666h36zM508 775h-119q-33 0 -61.5 16.5
t-45.5 45.5l31 18q24 -44 76 -44h119q50 0 76 44l31 -18q-17 -29 -45.5 -45.5t-61.5 -16.5z" />
    <glyph glyph-name="afii10076" unicode="&#x43a;" horiz-adv-x="927" 
d="M115 733v-733h-35v733h35zM177 348v36h339q30 0 49 15.5t47 57.5l192 276h44l-207 -296q-30 -46 -52 -64q-2 -1 -5 -3.5t-4 -3.5q6 -4 9 -7q22 -17 52 -63l206 -296h-43l-192 276q-28 41 -47 56.5t-49 15.5h-339z" />
    <glyph glyph-name="afii10077" unicode="&#x43b;" horiz-adv-x="890" 
d="M85 0h-39l256 653q15 39 46 63q33 24 75 24q43 0 75 -24q31 -24 47 -63l255 -653h-38l-251 640q-11 30 -34.5 47.5t-53.5 17.5q-29 0 -52.5 -17.5t-35.5 -47.5z" />
    <glyph glyph-name="afii10078" unicode="&#x43c;" horiz-adv-x="1125" 
d="M988 0h-36v677l-404 -562h-29l-403 562v-677h-36v733h40l414 -577l414 577h40v-733z" />
    <glyph glyph-name="afii10079" unicode="&#x43d;" horiz-adv-x="920" 
d="M816 0h-36v348h-603v36h603v349h36v-733zM116 0h-36v733h36v-733z" />
    <glyph glyph-name="afii10080" unicode="&#x43e;" horiz-adv-x="1068" 
d="M743 0h-473q-79 0 -134.5 55.5t-55.5 134.5v353q0 79 55.5 135t134.5 56h473q79 0 134.5 -56t55.5 -135v-353q0 -79 -55.5 -134.5t-134.5 -55.5zM743 698h-473q-64 0 -109.5 -45.5t-45.5 -109.5v-353q0 -64 45.5 -109t109.5 -45h473q64 0 109.5 45t45.5 109v353
q0 64 -45.5 109.5t-109.5 45.5z" />
    <glyph glyph-name="afii10081" unicode="&#x43f;" horiz-adv-x="918" 
d="M793 0h-35v677q0 9 -6 15q-8 6 -15 6h-601q-7 0 -15 -6q-6 -6 -6 -15v-677h-35v677q0 24 16 40t40 16h601q24 0 40 -16t16 -40v-677z" />
    <glyph glyph-name="afii10082" unicode="&#x440;" horiz-adv-x="870" 
d="M116 698v-697h-36v733h549q52 0 88.5 -37t36.5 -89v-201q0 -52 -36.5 -88.5t-88.5 -36.5h-452v36h452q37 0 63.5 26t26.5 63v201q0 38 -26.5 64t-63.5 26h-513z" />
    <glyph glyph-name="afii10083" unicode="&#x441;" horiz-adv-x="867" 
d="M769 734v-36h-499q-64 0 -109.5 -45.5t-45.5 -109.5v-353q0 -64 45.5 -109t109.5 -45h499v-36h-499q-79 0 -134.5 55.5t-55.5 134.5v353q0 79 55.5 135t134.5 56h499z" />
    <glyph glyph-name="afii10084" unicode="&#x442;" horiz-adv-x="756" 
d="M366 0h-36v697h-330v36h697v-36h-331v-697z" />
    <glyph glyph-name="afii10085" unicode="&#x443;" horiz-adv-x="947" 
d="M85 732h35v-322q0 -37 26.5 -63t63.5 -26h474q36 0 61.5 25t27.5 60v327h36v-323v-5v-279q0 -52 -36.5 -89t-88.5 -37h-581v36h581q37 0 63 26.5t26 63.5v196q-37 -37 -89 -37h-474q-52 0 -88.5 36.5t-36.5 88.5v322zM809 733h-36h36z" />
    <glyph glyph-name="afii10086" unicode="&#x444;" horiz-adv-x="1202" 
d="M614 -68h-36v68h-308q-79 0 -134.5 55.5t-55.5 134.5v352q0 79 55.5 135t134.5 56h308v52h36v-52h299q79 0 134.5 -56t55.5 -135v-352q0 -79 -55.5 -134.5t-134.5 -55.5h-299v-68zM578 697h-308q-64 0 -109.5 -45.5t-45.5 -109.5v-352q0 -64 45.5 -109t109.5 -45h308v661
zM614 36h299q64 0 109.5 45t45.5 109v352q0 64 -45.5 109.5t-109.5 45.5h-299v-661z" />
    <glyph glyph-name="afii10087" unicode="&#x445;" horiz-adv-x="781" 
d="M705 0h-46l-286 337l-285 -337h-48l309 365l-311 368h46l288 -341l288 341h49l-313 -369z" />
    <glyph glyph-name="afii10088" unicode="&#x446;" horiz-adv-x="979" 
d="M879 19q16 -16 16 -40v-87h-35v87q0 9 -6 15q-8 6 -15 6h-84h-619q-24 0 -40 16t-16 40v677h35v-677q0 -9 6 -15q8 -6 15 -6h619q7 0 15 6q6 6 6 15v677h35v-677q0 -12 -4 -21h32q24 0 40 -16z" />
    <glyph glyph-name="afii10089" unicode="&#x447;" horiz-adv-x="920" 
d="M85 732h35v-346q0 -37 26.5 -63t63.5 -26h474q36 0 61.5 25t27.5 60v351h36v-352v-381h-36v298q-37 -37 -89 -37h-474q-52 0 -88.5 36.5t-36.5 88.5v346zM809 733h-36h36z" />
    <glyph glyph-name="afii10090" unicode="&#x448;" horiz-adv-x="1287" 
d="M1146 733h35v-677q0 -24 -16 -40t-40 -16h-989q-24 0 -40 16t-16 40v677h35v-677q0 -9 6 -15q8 -6 15 -6h477v698h35v-698h477q7 0 15 6q6 6 6 15v677z" />
    <glyph glyph-name="afii10091" unicode="&#x449;" horiz-adv-x="1377" 
d="M1249 19q16 -16 16 -40v-87h-35v87q0 9 -6 15q-8 6 -15 6h-84h-989q-24 0 -40 16t-16 40v677h35v-677q0 -9 6 -15q8 -6 15 -6h477v698h35v-698h477q7 0 15 6q6 6 6 15v677h35v-677q0 -12 -4 -21h32q24 0 40 -16z" />
    <glyph glyph-name="afii10092" unicode="&#x44a;" horiz-adv-x="989" 
d="M226 733v-697h533q37 0 63.5 26t26.5 64v201q0 37 -26.5 63t-63.5 26h-483v36h483q52 0 88.5 -36.5t36.5 -88.5v-201q0 -52 -36.5 -89t-88.5 -37h-569v697h-188v36h224z" />
    <glyph glyph-name="afii10093" unicode="&#x44b;" horiz-adv-x="969" 
d="M116 733v-697h513q37 0 63.5 26t26.5 64v201q0 37 -26.5 63t-63.5 26h-452v36h452q52 0 88.5 -36.5t36.5 -88.5v-201q0 -52 -36.5 -89t-88.5 -37h-549v733h36zM870 0h-36v733h36v-733z" />
    <glyph glyph-name="afii10094" unicode="&#x44c;" horiz-adv-x="859" 
d="M116 733v-697h513q37 0 63.5 26t26.5 64v201q0 37 -26.5 63t-63.5 26h-452v36h452q52 0 88.5 -36.5t36.5 -88.5v-201q0 -52 -36.5 -89t-88.5 -37h-549v733h36z" />
    <glyph glyph-name="afii10095" unicode="&#x44d;" horiz-adv-x="954" 
d="M752 615q60 -104 60 -248q0 -145 -60 -249q-33 -55 -78 -85q-50 -33 -111 -33h-483v36h483q99 0 158 100q50 85 55 213h-695v35h695q-5 128 -55 213q-59 100 -158 100h-483v36h483q61 0 111 -33q45 -30 78 -85z" />
    <glyph glyph-name="afii10096" unicode="&#x44e;" horiz-adv-x="1215" 
d="M932 0h-473q-79 0 -134.5 55.5t-55.5 134.5v353q0 79 55.5 135t134.5 56h473q79 0 134.5 -56t55.5 -135v-353q0 -79 -55.5 -134.5t-134.5 -55.5zM459 698q-64 0 -109.5 -45.5t-45.5 -109.5v-353q0 -64 45.5 -109t109.5 -45h473q64 0 109.5 45t45.5 109v353
q0 64 -45.5 109.5t-109.5 45.5h-473zM116 0h-36v733h36v-733zM90 346v36h205v-36h-205z" />
    <glyph glyph-name="afii10097" unicode="&#x44f;" horiz-adv-x="960" 
d="M760 1v697h-523q-37 0 -63.5 -26t-26.5 -64v-201q0 -37 26.5 -63t63.5 -26h462v-36h-360l-213 -282h-45l213 282h-57q-52 0 -88.5 36.5t-36.5 88.5v201q0 52 36.5 89t88.5 37h559v-733h-36z" />
    <glyph glyph-name="afii10071" unicode="&#x451;" horiz-adv-x="826" 
d="M177 348v36h530v-36h-530zM115 610v-487q0 -36 25.5 -61.5t61.5 -25.5h543v-36h-543q-50 0 -86 36t-36 87v487q0 51 36 87t86 36h543v-35h-543q-36 0 -61.5 -26t-25.5 -62zM384 773h-36v85h36v-85zM544 773h-36v85h36v-85z" />
    <glyph glyph-name="afii10100" unicode="&#x453;" horiz-adv-x="766" 
d="M652 733v-36h-470q-27 0 -46.5 -19t-19.5 -46v-632h-36v632q0 41 30 71t72 30h470zM372 774h-43l65 109h43z" />
    <glyph glyph-name="afii10109" unicode="&#x45c;" horiz-adv-x="927" 
d="M115 733v-733h-35v733h35zM177 348v36h339q30 0 49 15.5t47 57.5l192 276h44l-207 -296q-30 -46 -52 -64q-2 -1 -5 -3.5t-4 -3.5q6 -4 9 -7q22 -17 52 -63l206 -296h-43l-192 276q-28 41 -47 56.5t-49 15.5h-339zM409 604h43l65 109h-43z" />
    <glyph glyph-name="afii10110" unicode="&#x45e;" horiz-adv-x="947" 
d="M85 732h35v-322q0 -37 26.5 -63t63.5 -26h474q36 0 61.5 25t27.5 60v327h36v-323v-5v-279q0 -52 -36.5 -89t-88.5 -37h-581v36h581q37 0 63 26.5t26 63.5v196q-37 -37 -89 -37h-474q-52 0 -88.5 36.5t-36.5 88.5v322zM809 733h-36h36zM533 774h-119q-33 0 -61.5 16.5
t-45.5 45.5l31 18q24 -44 76 -44h119q50 0 76 44l31 -18q-17 -29 -45.5 -45.5t-61.5 -16.5z" />
    <glyph glyph-name="uni0492" unicode="&#x492;" 
 />
    <glyph glyph-name="uni04C1" unicode="&#x4c1;" horiz-adv-x="1520" 
d="M1170 359q22 -17 52 -63l206 -296h-43l-192 276q-28 41 -47 56.5t-49 15.5h-331v-348h-35v348h-331q-30 0 -49 -15.5t-47 -56.5l-192 -276h-43l206 296q30 46 52 63q3 3 9 7q-1 1 -4 3.5t-5 3.5q-22 18 -52 64l-207 296h44l192 -276q28 -42 47 -57.5t49 -15.5h331v349h35
v-349h331q30 0 49 15.5t47 57.5l192 276h44l-207 -296q-30 -46 -52 -64q-1 -1 -4 -3.5t-5 -3.5q6 -4 9 -7zM819 822h-119q-33 0 -61.5 16.5t-45.5 45.5l31 18q24 -44 76 -44h119q50 0 76 44l31 -18q-17 -29 -45.5 -45.5t-61.5 -16.5z" />
    <glyph glyph-name="uni04C2" unicode="&#x4c2;" horiz-adv-x="1520" 
d="M766 733v-733h-35v348h-331q-30 0 -49 -15.5t-47 -56.5l-192 -276h-43l206 296q30 46 52 63q3 3 9 7q-1 1 -4 3.5t-5 3.5q-22 18 -52 64l-207 296h44l192 -276q28 -42 47 -57.5t49 -15.5h331v349h35zM802 348v36h295q30 0 49 15.5t47 57.5l192 276h44l-207 -296
q-30 -46 -52 -64q-1 -1 -4 -3.5t-5 -3.5q6 -4 9 -7q22 -17 52 -63l206 -296h-43l-192 276q-28 41 -47 56.5t-49 15.5h-295zM809 765h-119q-33 0 -61.5 16.5t-45.5 45.5l31 18q24 -44 76 -44h119q50 0 76 44l31 -18q-17 -29 -45.5 -45.5t-61.5 -16.5z" />
    <glyph glyph-name="uni04D2" unicode="&#x4d2;" horiz-adv-x="890" 
d="M171 222l-86 -222h-39l256 653q15 39 46 63q33 24 75 24q43 0 75 -24q31 -24 47 -63l255 -653h-38l-87 222h-504zM423 705q-29 0 -52.5 -17.5t-35.5 -47.5l-150 -382h476l-150 382q-11 30 -34.5 47.5t-53.5 17.5zM363 811h-36v85h36v-85zM523 811h-36v85h36v-85z" />
    <glyph glyph-name="uni04D3" unicode="&#x4d3;" horiz-adv-x="890" 
d="M355 640l-250 -640h-39l256 653q15 39 46 63q33 24 75 24q44 0 75 -24t47 -63l255 -653h-38l-87 222h-424v36h410l-150 382q-11 30 -34.5 47.5t-53.5 17.5q-29 0 -52.5 -17.5t-35.5 -47.5zM383 770h-36v85h36v-85zM543 770h-36v85h36v-85z" />
    <glyph glyph-name="uni04D4" unicode="&#x4d4;" 
 />
    <glyph glyph-name="uni04DB" unicode="&#x4db;" 
 />
    <glyph glyph-name="uni04DC" unicode="&#x4dc;" horiz-adv-x="1520" 
d="M1170 359q22 -17 52 -63l206 -296h-43l-192 276q-28 41 -47 56.5t-49 15.5h-331v-348h-35v348h-331q-30 0 -49 -15.5t-47 -56.5l-192 -276h-43l206 296q30 46 52 63q3 3 9 7q-1 1 -4 3.5t-5 3.5q-22 18 -52 64l-207 296h44l192 -276q28 -42 47 -57.5t49 -15.5h331v349h35
v-349h331q30 0 49 15.5t47 57.5l192 276h44l-207 -296q-30 -46 -52 -64q-1 -1 -4 -3.5t-5 -3.5q6 -4 9 -7zM698 811h-36v85h36v-85zM858 811h-36v85h36v-85z" />
    <glyph glyph-name="uni04DD" unicode="&#x4dd;" horiz-adv-x="1520" 
d="M766 733v-733h-35v348h-331q-30 0 -49 -15.5t-47 -56.5l-192 -276h-43l206 296q30 46 52 63q3 3 9 7q-1 1 -4 3.5t-5 3.5q-22 18 -52 64l-207 296h44l192 -276q28 -42 47 -57.5t49 -15.5h331v349h35zM802 348v36h295q30 0 49 15.5t47 57.5l192 276h44l-207 -296
q-30 -46 -52 -64q-1 -1 -4 -3.5t-5 -3.5q6 -4 9 -7q22 -17 52 -63l206 -296h-43l-192 276q-28 41 -47 56.5t-49 15.5h-295zM688 775h-36v85h36v-85zM848 775h-36v85h36v-85z" />
    <glyph glyph-name="uni04DE" unicode="&#x4de;" horiz-adv-x="887" 
d="M782 488q0 -70 -60 -107q60 -37 60 -107v-149q0 -52 -36.5 -88.5t-88.5 -36.5h-451q-52 0 -88.5 36.5t-36.5 88.5h35q0 -37 26.5 -63t63.5 -26h451q37 0 63.5 26t26.5 63v149q0 37 -26 63t-63 26h-1h-451v36h451h1q37 0 63 26t26 63v120q0 38 -26.5 64t-63.5 26h-451
q-38 0 -64 -26t-26 -64h-35q0 52 36.5 89t88.5 37h451q52 0 88.5 -37t36.5 -89v-120zM381 811h-36v85h36v-85zM541 811h-36v85h36v-85z" />
    <glyph glyph-name="uni04DF" unicode="&#x4df;" horiz-adv-x="887" 
d="M782 488q0 -70 -60 -107q60 -37 60 -107v-149q0 -52 -36.5 -88.5t-88.5 -36.5h-451q-52 0 -88.5 36.5t-36.5 88.5h35q0 -37 26.5 -63t63.5 -26h451q37 0 63.5 26t26.5 63v149q0 37 -26 63t-63 26h-1h-451v36h451h1q37 0 63 26t26 63v120q0 38 -26.5 64t-63.5 26h-451
q-38 0 -64 -26t-26 -64h-35q0 52 36.5 89t88.5 37h451q52 0 88.5 -37t36.5 -89v-120zM381 777h-36v85h36v-85zM541 777h-36v85h36v-85z" />
    <glyph glyph-name="uni04E2" unicode="&#x4e2;" horiz-adv-x="937" 
d="M116 733v-666q0 -27 20 -33q26 -9 44 18h1l490 647q15 21 39 29q21 9 46 2q19 -6 32 -24q13 -19 13 -44v-666h-36v666q0 28 -20 34q-26 8 -45 -18v-1l-491 -646q-14 -22 -38 -30q-23 -9 -46 -1q-22 7 -32 23q-13 17 -13 44v666h36zM285 773v36h324v-36h-324z" />
    <glyph glyph-name="uni04E3" unicode="&#x4e3;" horiz-adv-x="897" 
d="M116 733v-666q0 -27 20 -33q26 -9 44 18h1l490 647q15 21 39 29q21 9 46 2q19 -6 32 -24q13 -19 13 -44v-666h-36v666q0 28 -20 34q-26 8 -45 -18v-1l-491 -646q-14 -22 -38 -30q-23 -9 -46 -1q-22 7 -32 23q-13 17 -13 44v666h36zM276 774v36h324v-36h-324z" />
    <glyph glyph-name="uni04E4" unicode="&#x4e4;" horiz-adv-x="937" 
d="M116 733v-666q0 -27 20 -33q26 -9 44 18h1l490 647q15 21 39 29q21 9 46 2q19 -6 32 -24q13 -19 13 -44v-666h-36v666q0 28 -20 34q-26 8 -45 -18v-1l-491 -646q-14 -22 -38 -30q-23 -9 -46 -1q-22 7 -32 23q-13 17 -13 44v666h36zM356 771h-36v85h36v-85zM516 771h-36
v85h36v-85z" />
    <glyph glyph-name="uni04E5" unicode="&#x4e5;" horiz-adv-x="897" 
d="M116 733v-666q0 -27 20 -33q26 -9 44 18h1l490 647q15 21 39 29q21 9 46 2q19 -6 32 -24q13 -19 13 -44v-666h-36v666q0 28 -20 34q-26 8 -45 -18v-1l-491 -646q-14 -22 -38 -30q-23 -9 -46 -1q-22 7 -32 23q-13 17 -13 44v666h36zM382 733h-36v85h36v-85zM542 733h-36
v85h36v-85z" />
    <glyph glyph-name="uni04E6" unicode="&#x4e6;" horiz-adv-x="1092" 
d="M743 0h-473q-79 0 -134.5 55.5t-55.5 134.5v353q0 79 55.5 135t134.5 56h473q79 0 134.5 -56t55.5 -135v-353q0 -79 -55.5 -134.5t-134.5 -55.5zM743 698h-473q-64 0 -109.5 -45.5t-45.5 -109.5v-353q0 -64 45.5 -109t109.5 -45h473q64 0 109.5 45t45.5 109v353
q0 64 -45.5 109.5t-109.5 45.5zM444 811h-36v85h36v-85zM604 811h-36v85h36v-85z" />
    <glyph glyph-name="uni04E7" unicode="&#x4e7;" horiz-adv-x="1068" 
d="M743 0h-473q-79 0 -134.5 55.5t-55.5 134.5v353q0 79 55.5 135t134.5 56h473q79 0 134.5 -56t55.5 -135v-353q0 -79 -55.5 -134.5t-134.5 -55.5zM743 698h-473q-64 0 -109.5 -45.5t-45.5 -109.5v-353q0 -64 45.5 -109t109.5 -45h473q64 0 109.5 45t45.5 109v353
q0 64 -45.5 109.5t-109.5 45.5zM451 775h-36v85h36v-85zM611 775h-36v85h36v-85z" />
    <glyph glyph-name="uni04EC" unicode="&#x4ec;" horiz-adv-x="954" 
d="M752 615q60 -104 60 -248q0 -145 -60 -249q-33 -55 -78 -85q-50 -33 -111 -33h-483v36h483q99 0 158 100q50 85 55 213h-695v35h695q-5 128 -55 213q-59 100 -158 100h-483v36h483q61 0 111 -33q45 -30 78 -85zM333 773h-36v85h36v-85zM493 773h-36v85h36v-85z" />
    <glyph glyph-name="uni04ED" unicode="&#x4ed;" horiz-adv-x="954" 
d="M752 615q60 -104 60 -248q0 -145 -60 -249q-33 -55 -78 -85q-50 -33 -111 -33h-483v36h483q99 0 158 100q50 85 55 213h-695v35h695q-5 128 -55 213q-59 100 -158 100h-483v36h483q61 0 111 -33q45 -30 78 -85zM315 772h-36v85h36v-85zM475 772h-36v85h36v-85z" />
    <glyph glyph-name="uni04EE" unicode="&#x4ee;" horiz-adv-x="947" 
d="M85 732h35v-322q0 -37 26.5 -63t63.5 -26h474q36 0 61.5 25t27.5 60v327h36v-323v-5v-279q0 -52 -36.5 -89t-88.5 -37h-581v36h581q37 0 63 26.5t26 63.5v196q-37 -37 -89 -37h-474q-52 0 -88.5 36.5t-36.5 88.5v322zM809 733h-36h36zM311 831v36h324v-36h-324z" />
    <glyph glyph-name="uni04EF" unicode="&#x4ef;" horiz-adv-x="947" 
d="M85 732h35v-322q0 -37 26.5 -63t63.5 -26h474q36 0 61.5 25t27.5 60v327h36v-323v-5v-279q0 -52 -36.5 -89t-88.5 -37h-581v36h581q37 0 63 26.5t26 63.5v196q-37 -37 -89 -37h-474q-52 0 -88.5 36.5t-36.5 88.5v322zM809 733h-36h36zM286 733v36h324v-36h-324z" />
    <glyph glyph-name="uni04F0" unicode="&#x4f0;" horiz-adv-x="947" 
d="M85 732h35v-322q0 -37 26.5 -63t63.5 -26h474q36 0 61.5 25t27.5 60v327h36v-323v-5v-279q0 -52 -36.5 -89t-88.5 -37h-581v36h581q37 0 63 26.5t26 63.5v196q-37 -37 -89 -37h-474q-52 0 -88.5 36.5t-36.5 88.5v322zM809 733h-36h36zM411 811h-36v85h36v-85zM571 811
h-36v85h36v-85z" />
    <glyph glyph-name="uni04F1" unicode="&#x4f1;" horiz-adv-x="947" 
d="M85 732h35v-322q0 -37 26.5 -63t63.5 -26h474q36 0 61.5 25t27.5 60v327h36v-323v-5v-279q0 -52 -36.5 -89t-88.5 -37h-581v36h581q37 0 63 26.5t26 63.5v196q-37 -37 -89 -37h-474q-52 0 -88.5 36.5t-36.5 88.5v322zM809 733h-36h36zM380 735h-36v85h36v-85zM540 735
h-36v85h36v-85z" />
    <glyph glyph-name="uni04F4" unicode="&#x4f4;" horiz-adv-x="920" 
d="M85 732h35v-346q0 -37 26.5 -63t63.5 -26h474q36 0 61.5 25t27.5 60v351h36v-352v-381h-36v298q-37 -37 -89 -37h-474q-52 0 -88.5 36.5t-36.5 88.5v346zM809 733h-36h36zM388 811h-36v85h36v-85zM548 811h-36v85h36v-85z" />
    <glyph glyph-name="uni04F5" unicode="&#x4f5;" horiz-adv-x="920" 
d="M85 732h35v-346q0 -37 26.5 -63t63.5 -26h474q36 0 61.5 25t27.5 60v351h36v-352v-381h-36v298q-37 -37 -89 -37h-474q-52 0 -88.5 36.5t-36.5 88.5v346zM809 733h-36h36zM388 772h-36v85h36v-85zM548 772h-36v85h36v-85z" />
    <glyph glyph-name="uni04F8" unicode="&#x4f8;" horiz-adv-x="904" 
d="M116 452h513q52 0 88.5 -36.5t36.5 -88.5v-201q0 -52 -36.5 -89t-88.5 -37h-549v733h36v-281zM116 416v-380h513q37 0 63.5 26t26.5 64v201q0 37 -26.5 63t-63.5 26h-513zM856 0h-36v733h36v-733zM390 811h-36v85h36v-85zM550 811h-36v85h36v-85z" />
    <glyph glyph-name="uni04F9" unicode="&#x4f9;" horiz-adv-x="904" 
d="M390 605h-36v85h36v-85zM550 605h-36v85h36v-85z" />
    <glyph glyph-name="endash" unicode="&#x2013;" horiz-adv-x="884" 
d="M80 346v36h721v-36h-721z" />
    <glyph glyph-name="emdash" unicode="&#x2014;" horiz-adv-x="1112" 
d="M80 346v36h969v-36h-969z" />
    <glyph glyph-name="quoteleft" unicode="&#x2018;" horiz-adv-x="193" 
d="M132 668h-38l-37 109h38z" />
    <glyph glyph-name="quoteright" unicode="&#x2019;" horiz-adv-x="190" 
d="M57 668l37 109h38l-37 -109h-38z" />
    <glyph glyph-name="quotesinglbase" unicode="&#x201a;" horiz-adv-x="228" 
d="M77 -66l37 109h38l-37 -109h-38z" />
    <glyph glyph-name="quotedblleft" unicode="&#x201c;" horiz-adv-x="276" 
d="M132 668h-38l-37 109h38zM212 668h-38l-37 109h38z" />
    <glyph glyph-name="quotedblright" unicode="&#x201d;" horiz-adv-x="297" 
d="M175 668h-38l37 109h38zM95 668h-38l37 109h38z" />
    <glyph glyph-name="quotedblbase" unicode="&#x201e;" horiz-adv-x="278" 
d="M77 -66l37 109h38l-37 -109h-38zM147 -66l37 109h38l-37 -109h-38z" />
    <glyph glyph-name="bullet" unicode="&#x2022;" horiz-adv-x="273" 
d="M80 394q0 22 16 38t38 16t38 -16t16 -38t-16 -38t-38 -16t-38 16t-16 38z" />
    <glyph glyph-name="ellipsis" unicode="&#x2026;" horiz-adv-x="478" 
d="M99 0h-36v85h36v-85zM254 0h-36v85h36v-85zM409 0h-36v85h36v-85z" />
    <glyph glyph-name="Euro" unicode="&#x20ac;" horiz-adv-x="849" 
d="M331 697q-99 0 -158 -100q-32 -56 -45 -124h612v-35h-618q-4 -31 -4 -71q0 -41 4 -72h548v-35h-542q13 -68 45 -124q59 -100 158 -100h443v-36h-443q-61 0 -111 33q-45 30 -78 85q-35 60 -50 142h-132v35h126q-4 48 -4 72q0 25 4 71h-126v35h132q15 81 50 142
q33 55 78 85q50 33 111 33h443v-36h-443z" />
    <glyph glyph-name="commaaccent" horiz-adv-x="512" 
d="M210 -145l37 109h38l-37 -109h-38z" />
    <glyph glyph-name="Imacron" horiz-adv-x="246" 
d="M127 0h-36v733h36v-733zM-51 774v36h324v-36h-324z" />
    </font>
</defs>
</svg>
